<svg width="69" height="79" viewBox="0 0 69 79" fill="none" xmlns="http://www.w3.org/2000/svg">
<path d="M34.0565 0C39.8257 3.34982 45.5328 6.66863 51.1779 9.95642C56.885 13.1822 62.6231 16.47 68.3922 19.8198C68.0821 32.7228 68.0821 45.7499 68.3922 58.9011C68.0821 58.9011 67.8339 58.839 67.6478 58.715C67.5238 58.5909 67.3066 58.4668 66.9965 58.3428C65.5697 57.4743 64.1119 56.6368 62.6231 55.8304C61.1343 55.0239 59.6144 54.1865 58.0636 53.318V29.0318C58.0636 28.5976 58.0946 28.0393 58.1567 27.3569C58.2187 26.6745 58.1877 26.1162 58.0636 25.682C58.0636 25.5579 57.9395 25.4028 57.6914 25.2167C57.4433 25.0306 57.1641 24.8755 56.8539 24.7515C56.5438 24.5654 56.2336 24.4103 55.9234 24.2862C55.6133 24.1622 55.3962 24.0691 55.2721 24.0071C51.7362 21.8979 48.2002 19.8508 44.6643 17.8657C41.1284 15.8806 37.5925 13.8335 34.0565 11.7244C30.1484 13.9576 26.1782 16.2528 22.1461 18.6101C18.1759 20.9674 14.1437 23.3247 10.0495 25.682V53.318C13.7095 55.5512 17.4005 57.7224 21.1225 59.8316C24.9066 62.0028 28.7527 64.2049 32.6608 66.4382C32.7848 66.5622 33.002 66.7173 33.3121 66.9034C33.6843 67.1516 33.9325 67.2756 34.0565 67.2756C34.1806 67.2756 34.3977 67.1516 34.7079 66.9034C35.0801 66.7173 35.4213 66.5622 35.7314 66.4382C37.8406 65.1975 39.8567 63.9878 41.7797 62.8092C43.7648 61.6926 45.7499 60.576 47.735 59.4594C49.4099 60.3278 51.1158 61.2583 52.8528 62.2509C54.5897 63.3055 56.2336 64.329 57.7845 65.3216C53.8763 67.5548 49.9062 69.819 45.874 72.1143C41.9038 74.4715 37.9647 76.7668 34.0565 79C28.2874 75.6502 22.5803 72.3314 16.9352 69.0436C11.2901 65.8178 5.64507 62.53 0 59.1802V19.8198C5.64507 16.594 11.2901 13.3373 16.9352 10.0495C22.5803 6.69965 28.2874 3.34982 34.0565 0ZM68.3922 59.1802C68.0821 63.2124 68.0821 67.1205 68.3922 70.9046C64.8563 69.1056 61.4134 67.1826 58.0636 65.1355C54.7138 63.1504 51.364 61.1653 48.0141 59.1802C49.689 58.1877 51.364 57.2572 53.0389 56.3887C54.7138 55.5202 56.3887 54.5897 58.0636 53.5972C59.7385 54.4656 61.4134 55.3962 63.0883 56.3887C64.8253 57.3812 66.5932 58.3117 68.3922 59.1802Z" fill="white"/>
<path d="M55.2488 26.8818V51.0093C54.3692 51.622 53.4896 52.1582 52.61 52.6178C51.7686 53.0774 50.8699 53.5752 49.9138 54.1114C47.3132 55.6816 44.7127 57.2326 42.1121 58.7645C39.5498 60.2964 36.9301 61.7901 34.253 63.2454C30.6964 61.2539 27.1589 59.2624 23.6404 57.2709C20.1603 55.2795 16.6419 53.2497 13.0852 51.1816C13.0852 47.6199 13.1043 44.0391 13.1426 40.4391C13.2191 36.8009 13.2573 33.4307 13.2573 30.3286C13.2573 30.1371 13.2191 29.9264 13.1426 29.6967C13.1043 29.4286 13.0852 29.1222 13.0852 28.7775V26.8818C13.1617 26.6903 13.3912 26.518 13.7736 26.3648C14.156 26.2116 14.4429 26.0967 14.6341 26.0201C15.3989 25.4839 16.1638 25.0052 16.9287 24.5839C17.7318 24.1244 18.5732 23.6839 19.4528 23.2627C20.4853 23.8754 21.5179 24.469 22.5505 25.0435C23.5831 25.5797 24.6157 26.1924 25.6482 26.8818C24.5392 27.4945 23.4492 28.1073 22.3784 28.7201C21.3458 29.2945 20.3132 29.8882 19.2807 30.5009V45.3221C19.2807 45.6668 19.2615 46.0497 19.2233 46.471C19.1851 46.8923 19.2042 47.1987 19.2807 47.3902C19.3189 47.4668 19.4145 47.5816 19.5675 47.7348C19.7587 47.8497 19.9499 47.9646 20.1411 48.0795C20.3706 48.1944 20.581 48.3093 20.7722 48.4242C20.9634 48.5008 21.0972 48.5582 21.1737 48.5965C23.3536 49.8986 25.5335 51.1625 27.7134 52.388C29.8933 53.6135 32.0158 54.8773 34.0809 56.1795C36.605 54.7241 39.1291 53.288 41.6532 51.871C44.1773 50.454 46.644 49.0178 49.0533 47.5625V30.5009C48.0207 29.8116 46.9882 29.1988 45.9556 28.6626C44.923 28.0882 43.8904 27.4945 42.8579 26.8818C43.8139 26.1924 44.8274 25.5605 45.8982 24.9861C46.969 24.3733 48.0207 23.7988 49.0533 23.2627L55.2488 26.8818Z" fill="white"/>
<path d="M34.1195 26.1705C36.124 27.2727 38.0757 28.3961 39.9747 29.5406C41.8948 30.664 43.836 31.798 45.7983 32.9426C45.7561 35.1045 45.7456 37.2559 45.7667 39.3967C45.7878 41.5374 45.7983 43.71 45.7983 45.9144V46.2959C45.7561 46.4019 45.6506 46.4973 45.4818 46.582C45.3341 46.6668 45.1864 46.7304 45.0387 46.7728C43.2663 47.8326 41.4728 48.8818 39.6582 49.9204C37.8436 50.959 36.029 52.0082 34.2144 53.068C32.2522 51.9658 30.3004 50.8424 28.3592 49.6978C26.4391 48.5744 24.4979 47.4405 22.5356 46.2959C22.5778 43.9856 22.5884 41.813 22.5673 39.7782C22.5462 37.7434 22.5356 35.7192 22.5356 33.7056V32.9426C22.5778 32.9002 22.6833 32.826 22.8521 32.72C23.042 32.5928 23.1897 32.508 23.2952 32.4656C24.1603 31.9781 24.9938 31.5012 25.7956 31.0349C26.6185 30.5686 27.4625 30.0917 28.3276 29.6042C29.3404 28.9895 30.3215 28.4067 31.271 27.8556C32.2205 27.3045 33.17 26.7428 34.1195 26.1705ZM25.9538 34.9456V44.3883C27.3464 45.1937 28.7179 45.9886 30.0683 46.7728C31.4398 47.557 32.7902 48.3519 34.1195 49.1573C35.3644 48.4367 36.5776 47.7372 37.7592 47.0589C38.9408 46.3807 40.133 45.6812 41.3357 44.9606C41.3779 44.9394 41.4517 44.9076 41.5572 44.8652C41.6627 44.8016 41.7682 44.738 41.8737 44.6744C42.0003 44.6108 42.1058 44.5472 42.1902 44.4837C42.2957 44.3989 42.359 44.3353 42.3801 44.2929C42.4223 44.1869 42.4329 44.0174 42.4118 43.7842C42.3907 43.551 42.3801 43.3391 42.3801 43.1483V34.9456C41.0508 34.1401 39.6899 33.3347 38.2973 32.5292C36.9047 31.7238 35.5437 30.9396 34.2144 30.1765C32.8219 30.9396 31.4398 31.7238 30.0683 32.5292C28.7179 33.3347 27.3464 34.1401 25.9538 34.9456ZM37.7276 37.6162C37.7276 38.2945 37.717 38.9622 37.6959 39.6192C37.6748 40.2763 37.6854 40.944 37.7276 41.6222C37.1579 42.0038 36.5671 42.3641 35.9552 42.7032C35.3644 43.0423 34.7841 43.3815 34.2144 43.7206C33.6026 43.3815 33.0012 43.0529 32.4104 42.735C31.8407 42.3959 31.271 42.0567 30.7013 41.7176C30.6591 40.9546 30.638 40.2657 30.638 39.651C30.638 39.0151 30.6591 38.3369 30.7013 37.6162C31.2288 37.2771 31.7985 36.9274 32.4104 36.567C33.0434 36.2067 33.6448 35.857 34.2144 35.5178C34.7841 35.857 35.3644 36.1961 35.9552 36.5352C36.5671 36.8744 37.1579 37.2347 37.7276 37.6162ZM34.1195 35.6132C33.592 35.9524 33.0434 36.2915 32.4737 36.6306C31.9251 36.9486 31.366 37.2771 30.7963 37.6162C31.3238 37.9554 31.8829 38.2945 32.4737 38.6336C33.0645 38.9516 33.6448 39.2801 34.2144 39.6192C34.7419 39.2801 35.2905 38.9516 35.8602 38.6336C36.451 38.2945 37.0102 37.9554 37.5377 37.6162C36.968 37.2771 36.4088 36.9486 35.8602 36.6306C35.3116 36.2915 34.7314 35.9524 34.1195 35.6132ZM30.7013 41.6222C31.2288 41.919 31.7458 42.2263 32.2522 42.5442C32.7586 42.841 33.2544 43.1059 33.7397 43.3391C33.8452 43.3815 33.9191 43.4451 33.9613 43.5299C34.0246 43.5934 34.0773 43.6252 34.1195 43.6252V39.7146C33.592 39.3331 33.0329 38.9834 32.4421 38.6654C31.8513 38.3475 31.271 37.9977 30.7013 37.6162V41.6222ZM34.2144 39.7146V43.6252C34.7841 43.2861 35.3644 42.9576 35.9552 42.6396C36.546 42.3005 37.1051 41.9614 37.6326 41.6222C37.6326 40.944 37.6432 40.2763 37.6643 39.6192C37.6854 38.9622 37.6748 38.2945 37.6326 37.6162C37.0629 37.9977 36.4932 38.3475 35.9235 38.6654C35.3538 38.9834 34.7841 39.3331 34.2144 39.7146Z" fill="white"/>
</svg>
