<svg width="176" height="172" viewBox="0 0 176 172" fill="none" xmlns="http://www.w3.org/2000/svg">
<path d="M58.3301 138.324C58.3301 139.031 57.623 139.385 56.5625 139.385C55.502 139.738 54.7949 139.031 54.7949 138.324C54.7949 137.617 55.502 136.91 56.5625 136.91C57.623 136.91 58.3301 137.617 58.3301 138.324ZM47.3711 136.557C47.3711 137.264 48.0781 138.324 49.1387 138.324C49.8457 138.678 50.9062 138.324 51.2598 137.617C51.2598 136.91 50.9062 136.203 49.8457 135.85C48.7852 135.496 47.7246 135.85 47.3711 136.557ZM63.2793 136.203C62.2188 136.203 61.5117 136.91 61.5117 137.971C61.5117 138.678 62.5723 139.031 63.6328 138.678C64.6934 138.324 65.4004 137.971 65.0469 137.264C65.0469 136.557 63.9863 135.85 63.2793 136.203ZM86.2578 0.453125C37.4727 0.453125 0 37.9258 0 86.7109C0 125.951 24.3926 159.535 59.7441 171.555C64.3398 172.262 65.7539 169.434 65.7539 167.312C65.7539 164.838 65.7539 152.818 65.7539 145.395C65.7539 145.395 41.0078 150.697 35.7051 134.789C35.7051 134.789 31.8164 124.537 26.1602 122.062C26.1602 122.062 18.0293 116.406 26.5137 116.406C26.5137 116.406 35.3516 117.113 40.3008 125.598C48.0781 139.385 60.8047 135.496 66.1074 133.021C66.8145 127.365 68.9355 123.477 71.7637 121.002C51.9668 118.881 31.8164 116.053 31.8164 82.1152C31.8164 72.2168 34.6445 67.6211 40.3008 61.2578C39.2402 58.7832 36.4121 49.5918 41.3613 37.2188C48.4316 35.0977 65.7539 46.7637 65.7539 46.7637C72.8242 44.6426 80.248 43.9355 87.6719 43.9355C95.4492 43.9355 102.873 44.6426 109.943 46.7637C109.943 46.7637 126.912 34.7441 134.336 37.2188C139.285 49.5918 136.104 58.7832 135.396 61.2578C141.053 67.6211 144.588 72.2168 144.588 82.1152C144.588 116.053 123.73 118.881 103.934 121.002C107.115 123.83 109.943 129.133 109.943 137.617C109.943 149.283 109.59 164.131 109.59 166.959C109.59 169.434 111.357 172.262 115.953 171.201C151.305 159.535 175.344 125.951 175.344 86.7109C175.344 37.9258 135.396 0.453125 86.2578 0.453125ZM34.291 122.416C33.584 122.77 33.9375 123.83 34.291 124.537C34.998 124.891 35.7051 125.244 36.4121 124.891C36.7656 124.537 36.7656 123.477 36.0586 122.77C35.3516 122.416 34.6445 122.062 34.291 122.416ZM30.4023 119.588C30.0488 120.295 30.4023 120.648 31.1094 121.002C31.8164 121.355 32.5234 121.355 32.877 120.648C32.877 120.295 32.5234 119.941 31.8164 119.588C31.1094 119.234 30.7559 119.234 30.4023 119.588ZM41.7148 132.314C41.3613 132.668 41.3613 133.729 42.4219 134.436C43.1289 135.143 44.1895 135.496 44.543 134.789C44.8965 134.436 44.8965 133.375 44.1895 132.668C43.4824 131.961 42.4219 131.607 41.7148 132.314ZM37.8262 127.012C37.1191 127.365 37.1191 128.426 37.8262 129.133C38.5332 129.84 39.2402 130.193 39.9473 129.84C40.3008 129.486 40.3008 128.426 39.9473 127.719C39.2402 127.012 38.5332 126.658 37.8262 127.012Z" fill="white"/>
</svg>
