<svg width="456" height="211" viewBox="0 0 456 211" fill="none" xmlns="http://www.w3.org/2000/svg">
<mask id="path-1-outside-1_28_37" maskUnits="userSpaceOnUse" x="0.173828" y="-0.238983" width="456" height="212" fill="black">
<rect fill="white" x="0.173828" y="-0.238983" width="456" height="212"/>
<path d="M96.022 80.9225H71.8174L68.1383 92.0566H48.1937L73.076 23.7997H94.957L119.742 92.0566H99.7011L96.022 80.9225ZM91.2779 66.3997L83.9197 44.3251L76.6583 66.3997H91.2779Z"/>
<path d="M161.46 37.2574C167.721 37.2574 172.691 39.3551 176.37 43.5506C180.049 47.6815 181.888 53.297 181.888 60.397V92.0566H162.912V62.9143C162.912 59.8161 162.105 57.3956 160.492 55.6529C158.878 53.8456 156.716 52.942 154.005 52.942C151.165 52.942 148.938 53.8456 147.324 55.6529C145.711 57.3956 144.904 59.8161 144.904 62.9143V92.0566H125.927V37.7415H144.904V45.487C146.582 43.0342 148.841 41.0656 151.681 39.581C154.521 38.032 157.781 37.2574 161.46 37.2574Z"/>
<path d="M189.203 64.8506C189.203 59.2352 190.203 54.3297 192.204 50.1342C194.27 45.9388 197.077 42.7115 200.627 40.4524C204.177 38.1933 208.115 37.0638 212.439 37.0638C215.925 37.0638 219.023 37.8061 221.734 39.2906C224.509 40.7106 226.671 42.6792 228.221 45.1965V20.411H247.294V92.0566H228.221V84.5047C226.736 87.022 224.638 89.0229 221.927 90.5075C219.216 91.992 216.021 92.7343 212.342 92.7343C208.018 92.7343 204.081 91.6048 200.531 89.3457C197.045 87.0866 194.27 83.8593 192.204 79.6638C190.203 75.4038 189.203 70.4661 189.203 64.8506ZM228.317 64.8506C228.317 61.3652 227.349 58.622 225.413 56.6211C223.541 54.6202 221.217 53.6197 218.442 53.6197C215.602 53.6197 213.246 54.6202 211.374 56.6211C209.502 58.5574 208.566 61.3006 208.566 64.8506C208.566 68.3361 209.502 71.1115 211.374 73.177C213.246 75.1779 215.602 76.1784 218.442 76.1784C221.217 76.1784 223.541 75.1779 225.413 73.177C227.349 71.1761 228.317 68.4006 228.317 64.8506Z"/>
<path d="M277.084 47.3265C279.214 44.2283 281.795 41.7756 284.829 39.9683C287.863 38.161 291.122 37.2574 294.608 37.2574V57.4924H289.283C285.152 57.4924 282.086 58.2993 280.085 59.9129C278.084 61.5265 277.084 64.3343 277.084 68.3361V92.0566H258.107V37.7415H277.084V47.3265Z"/>
<path d="M353.305 64.2697C353.305 65.7543 353.208 67.2388 353.015 68.7234H317.095C317.289 71.6925 318.096 73.9193 319.516 75.4038C321 76.8238 322.872 77.5338 325.131 77.5338C328.294 77.5338 330.553 76.1138 331.908 73.2738H352.143C351.304 77.0175 349.658 80.3738 347.206 83.3429C344.818 86.2475 341.784 88.5388 338.105 90.217C334.426 91.8952 330.359 92.7343 325.906 92.7343C320.548 92.7343 315.772 91.6048 311.577 89.3457C307.446 87.0866 304.186 83.8593 301.798 79.6638C299.474 75.4684 298.312 70.5306 298.312 64.8506C298.312 59.1706 299.474 54.2652 301.798 50.1342C304.122 45.9388 307.349 42.7115 311.48 40.4524C315.675 38.1933 320.484 37.0638 325.906 37.0638C331.263 37.0638 336.007 38.1611 340.138 40.3556C344.269 42.5501 347.496 45.7129 349.82 49.8438C352.143 53.9102 353.305 58.7188 353.305 64.2697ZM333.942 59.5256C333.942 57.202 333.167 55.3947 331.618 54.1038C330.069 52.7483 328.132 52.0706 325.809 52.0706C323.485 52.0706 321.581 52.7161 320.097 54.007C318.612 55.2333 317.644 57.0729 317.192 59.5256H333.942ZM337.621 24.0901L313.416 33.5783V20.7015L337.621 9.76102V24.0901Z"/>
<path d="M398.579 77.5338H419.782V92.0566H379.603V23.7997H398.579V77.5338Z"/>
<path d="M436.359 92.8311C433.002 92.8311 430.291 91.9275 428.226 90.1202C426.225 88.2484 425.225 85.8925 425.225 83.0525C425.225 80.2125 426.225 77.8566 428.226 75.9847C430.291 74.1129 433.002 73.177 436.359 73.177C439.651 73.177 442.297 74.1129 444.298 75.9847C446.363 77.8566 447.396 80.2125 447.396 83.0525C447.396 85.8279 446.363 88.1516 444.298 90.0234C442.297 91.8952 439.651 92.8311 436.359 92.8311Z"/>
<path d="M41.2221 204.68C34.832 204.68 28.9584 203.196 23.6011 200.227C18.2438 197.193 13.9838 193.03 10.8211 187.737C7.72292 182.38 6.17383 176.345 6.17383 169.632C6.17383 162.919 7.72292 156.917 10.8211 151.624C13.9838 146.267 18.2438 142.104 23.6011 139.134C28.9584 136.165 34.832 134.681 41.2221 134.681C47.6766 134.681 53.5503 136.165 58.843 139.134C64.2003 142.104 68.428 146.267 71.5262 151.624C74.6244 156.917 76.1735 162.919 76.1735 169.632C76.1735 176.345 74.6244 182.38 71.5262 187.737C68.428 193.03 64.2003 197.193 58.843 200.227C53.4857 203.196 47.6121 204.68 41.2221 204.68ZM41.2221 187.06C46.063 187.06 49.8712 185.478 52.6466 182.315C55.4866 179.153 56.9066 174.925 56.9066 169.632C56.9066 164.21 55.4866 159.95 52.6466 156.852C49.8712 153.689 46.063 152.108 41.2221 152.108C36.3166 152.108 32.4761 153.689 29.7007 156.852C26.9252 159.95 25.5375 164.21 25.5375 169.632C25.5375 174.99 26.9252 179.25 29.7007 182.412C32.4761 185.51 36.3166 187.06 41.2221 187.06Z"/>
<path d="M93.9018 204.777C90.5454 204.777 87.8345 203.874 85.7691 202.066C83.7682 200.195 82.7677 197.839 82.7677 194.999C82.7677 192.159 83.7682 189.803 85.7691 187.931C87.8345 186.059 90.5454 185.123 93.9018 185.123C97.1936 185.123 99.84 186.059 101.841 187.931C103.906 189.803 104.939 192.159 104.939 194.999C104.939 197.774 103.906 200.098 101.841 201.97C99.84 203.841 97.1936 204.777 93.9018 204.777Z"/>
<path d="M177.571 135.746V180.96C177.571 188.641 175.473 194.515 171.278 198.581C167.147 202.647 161.435 204.68 154.141 204.68C146.395 204.68 140.199 202.518 135.552 198.194C130.969 193.869 128.678 187.64 128.678 179.508H147.46C147.525 184.865 149.494 187.544 153.366 187.544C156.852 187.544 158.595 185.349 158.595 180.96V135.746H177.571Z"/>
<path d="M244.471 149.688V204.003H225.398V196.257C223.784 198.71 221.557 200.711 218.717 202.26C215.877 203.745 212.618 204.487 208.939 204.487C202.613 204.487 197.611 202.421 193.932 198.29C190.317 194.095 188.51 188.415 188.51 181.25V149.688H207.389V178.83C207.389 181.928 208.196 184.381 209.81 186.188C211.488 187.931 213.683 188.802 216.394 188.802C219.169 188.802 221.364 187.931 222.977 186.188C224.591 184.381 225.398 181.928 225.398 178.83V149.688H244.471ZM228.496 136.52L204.291 146.009V133.132L228.496 122.191V136.52Z"/>
<path d="M290.803 149.204C297.064 149.204 302.034 151.301 305.713 155.497C309.392 159.628 311.232 165.243 311.232 172.343V204.003H292.255V174.86C292.255 171.762 291.448 169.342 289.835 167.599C288.221 165.792 286.059 164.888 283.348 164.888C280.508 164.888 278.281 165.792 276.668 167.599C275.054 169.342 274.247 171.762 274.247 174.86V204.003H255.271V149.688H274.247V157.433C275.925 154.98 278.184 153.012 281.024 151.527C283.864 149.978 287.124 149.204 290.803 149.204Z"/>
<path d="M331.229 144.653C327.873 144.653 325.162 143.749 323.096 141.942C321.096 140.07 320.095 137.747 320.095 134.971C320.095 132.131 321.096 129.775 323.096 127.904C325.162 126.032 327.873 125.096 331.229 125.096C334.521 125.096 337.167 126.032 339.168 127.904C341.234 129.775 342.266 132.131 342.266 134.971C342.266 137.747 341.234 140.07 339.168 141.942C337.167 143.749 334.521 144.653 331.229 144.653ZM340.621 149.688V204.003H321.644V149.688H340.621Z"/>
<path d="M376.697 204.68C371.275 204.68 366.402 203.551 362.077 201.292C357.817 199.033 354.461 195.805 352.008 191.61C349.555 187.415 348.329 182.477 348.329 176.797C348.329 171.181 349.555 166.276 352.008 162.08C354.525 157.885 357.914 154.658 362.174 152.399C366.499 150.139 371.372 149.01 376.794 149.01C382.215 149.01 387.056 150.139 391.316 152.399C395.641 154.658 399.029 157.885 401.482 162.08C403.999 166.276 405.258 171.181 405.258 176.797C405.258 182.412 403.999 187.35 401.482 191.61C399.029 195.805 395.641 199.033 391.316 201.292C386.992 203.551 382.119 204.68 376.697 204.68ZM376.697 188.221C379.343 188.221 381.538 187.253 383.28 185.317C385.088 183.316 385.991 180.476 385.991 176.797C385.991 173.118 385.088 170.31 383.28 168.374C381.538 166.437 379.375 165.469 376.794 165.469C374.212 165.469 372.049 166.437 370.307 168.374C368.564 170.31 367.693 173.118 367.693 176.797C367.693 180.54 368.532 183.38 370.21 185.317C371.888 187.253 374.05 188.221 376.697 188.221Z"/>
<path d="M431.955 159.273C434.085 156.174 436.667 153.722 439.7 151.914C442.734 150.107 445.994 149.204 449.479 149.204V169.439H444.154C440.023 169.439 436.957 170.245 434.956 171.859C432.955 173.473 431.955 176.28 431.955 180.282V204.003H412.979V149.688H431.955V159.273Z"/>
</mask>
<path d="M96.022 80.9225H71.8174L68.1383 92.0566H48.1937L73.076 23.7997H94.957L119.742 92.0566H99.7011L96.022 80.9225ZM91.2779 66.3997L83.9197 44.3251L76.6583 66.3997H91.2779Z" fill="white"/>
<path d="M161.46 37.2574C167.721 37.2574 172.691 39.3551 176.37 43.5506C180.049 47.6815 181.888 53.297 181.888 60.397V92.0566H162.912V62.9143C162.912 59.8161 162.105 57.3956 160.492 55.6529C158.878 53.8456 156.716 52.942 154.005 52.942C151.165 52.942 148.938 53.8456 147.324 55.6529C145.711 57.3956 144.904 59.8161 144.904 62.9143V92.0566H125.927V37.7415H144.904V45.487C146.582 43.0342 148.841 41.0656 151.681 39.581C154.521 38.032 157.781 37.2574 161.46 37.2574Z" fill="white"/>
<path d="M189.203 64.8506C189.203 59.2352 190.203 54.3297 192.204 50.1342C194.27 45.9388 197.077 42.7115 200.627 40.4524C204.177 38.1933 208.115 37.0638 212.439 37.0638C215.925 37.0638 219.023 37.8061 221.734 39.2906C224.509 40.7106 226.671 42.6792 228.221 45.1965V20.411H247.294V92.0566H228.221V84.5047C226.736 87.022 224.638 89.0229 221.927 90.5075C219.216 91.992 216.021 92.7343 212.342 92.7343C208.018 92.7343 204.081 91.6048 200.531 89.3457C197.045 87.0866 194.27 83.8593 192.204 79.6638C190.203 75.4038 189.203 70.4661 189.203 64.8506ZM228.317 64.8506C228.317 61.3652 227.349 58.622 225.413 56.6211C223.541 54.6202 221.217 53.6197 218.442 53.6197C215.602 53.6197 213.246 54.6202 211.374 56.6211C209.502 58.5574 208.566 61.3006 208.566 64.8506C208.566 68.3361 209.502 71.1115 211.374 73.177C213.246 75.1779 215.602 76.1784 218.442 76.1784C221.217 76.1784 223.541 75.1779 225.413 73.177C227.349 71.1761 228.317 68.4006 228.317 64.8506Z" fill="white"/>
<path d="M277.084 47.3265C279.214 44.2283 281.795 41.7756 284.829 39.9683C287.863 38.161 291.122 37.2574 294.608 37.2574V57.4924H289.283C285.152 57.4924 282.086 58.2993 280.085 59.9129C278.084 61.5265 277.084 64.3343 277.084 68.3361V92.0566H258.107V37.7415H277.084V47.3265Z" fill="white"/>
<path d="M353.305 64.2697C353.305 65.7543 353.208 67.2388 353.015 68.7234H317.095C317.289 71.6925 318.096 73.9193 319.516 75.4038C321 76.8238 322.872 77.5338 325.131 77.5338C328.294 77.5338 330.553 76.1138 331.908 73.2738H352.143C351.304 77.0175 349.658 80.3738 347.206 83.3429C344.818 86.2475 341.784 88.5388 338.105 90.217C334.426 91.8952 330.359 92.7343 325.906 92.7343C320.548 92.7343 315.772 91.6048 311.577 89.3457C307.446 87.0866 304.186 83.8593 301.798 79.6638C299.474 75.4684 298.312 70.5306 298.312 64.8506C298.312 59.1706 299.474 54.2652 301.798 50.1342C304.122 45.9388 307.349 42.7115 311.48 40.4524C315.675 38.1933 320.484 37.0638 325.906 37.0638C331.263 37.0638 336.007 38.1611 340.138 40.3556C344.269 42.5501 347.496 45.7129 349.82 49.8438C352.143 53.9102 353.305 58.7188 353.305 64.2697ZM333.942 59.5256C333.942 57.202 333.167 55.3947 331.618 54.1038C330.069 52.7483 328.132 52.0706 325.809 52.0706C323.485 52.0706 321.581 52.7161 320.097 54.007C318.612 55.2333 317.644 57.0729 317.192 59.5256H333.942ZM337.621 24.0901L313.416 33.5783V20.7015L337.621 9.76102V24.0901Z" fill="white"/>
<path d="M398.579 77.5338H419.782V92.0566H379.603V23.7997H398.579V77.5338Z" fill="white"/>
<path d="M436.359 92.8311C433.002 92.8311 430.291 91.9275 428.226 90.1202C426.225 88.2484 425.225 85.8925 425.225 83.0525C425.225 80.2125 426.225 77.8566 428.226 75.9847C430.291 74.1129 433.002 73.177 436.359 73.177C439.651 73.177 442.297 74.1129 444.298 75.9847C446.363 77.8566 447.396 80.2125 447.396 83.0525C447.396 85.8279 446.363 88.1516 444.298 90.0234C442.297 91.8952 439.651 92.8311 436.359 92.8311Z" fill="white"/>
<path d="M41.2221 204.68C34.832 204.68 28.9584 203.196 23.6011 200.227C18.2438 197.193 13.9838 193.03 10.8211 187.737C7.72292 182.38 6.17383 176.345 6.17383 169.632C6.17383 162.919 7.72292 156.917 10.8211 151.624C13.9838 146.267 18.2438 142.104 23.6011 139.134C28.9584 136.165 34.832 134.681 41.2221 134.681C47.6766 134.681 53.5503 136.165 58.843 139.134C64.2003 142.104 68.428 146.267 71.5262 151.624C74.6244 156.917 76.1735 162.919 76.1735 169.632C76.1735 176.345 74.6244 182.38 71.5262 187.737C68.428 193.03 64.2003 197.193 58.843 200.227C53.4857 203.196 47.6121 204.68 41.2221 204.68ZM41.2221 187.06C46.063 187.06 49.8712 185.478 52.6466 182.315C55.4866 179.153 56.9066 174.925 56.9066 169.632C56.9066 164.21 55.4866 159.95 52.6466 156.852C49.8712 153.689 46.063 152.108 41.2221 152.108C36.3166 152.108 32.4761 153.689 29.7007 156.852C26.9252 159.95 25.5375 164.21 25.5375 169.632C25.5375 174.99 26.9252 179.25 29.7007 182.412C32.4761 185.51 36.3166 187.06 41.2221 187.06Z" fill="white"/>
<path d="M93.9018 204.777C90.5454 204.777 87.8345 203.874 85.7691 202.066C83.7682 200.195 82.7677 197.839 82.7677 194.999C82.7677 192.159 83.7682 189.803 85.7691 187.931C87.8345 186.059 90.5454 185.123 93.9018 185.123C97.1936 185.123 99.84 186.059 101.841 187.931C103.906 189.803 104.939 192.159 104.939 194.999C104.939 197.774 103.906 200.098 101.841 201.97C99.84 203.841 97.1936 204.777 93.9018 204.777Z" fill="white"/>
<path d="M177.571 135.746V180.96C177.571 188.641 175.473 194.515 171.278 198.581C167.147 202.647 161.435 204.68 154.141 204.68C146.395 204.68 140.199 202.518 135.552 198.194C130.969 193.869 128.678 187.64 128.678 179.508H147.46C147.525 184.865 149.494 187.544 153.366 187.544C156.852 187.544 158.595 185.349 158.595 180.96V135.746H177.571Z" fill="white"/>
<path d="M244.471 149.688V204.003H225.398V196.257C223.784 198.71 221.557 200.711 218.717 202.26C215.877 203.745 212.618 204.487 208.939 204.487C202.613 204.487 197.611 202.421 193.932 198.29C190.317 194.095 188.51 188.415 188.51 181.25V149.688H207.389V178.83C207.389 181.928 208.196 184.381 209.81 186.188C211.488 187.931 213.683 188.802 216.394 188.802C219.169 188.802 221.364 187.931 222.977 186.188C224.591 184.381 225.398 181.928 225.398 178.83V149.688H244.471ZM228.496 136.52L204.291 146.009V133.132L228.496 122.191V136.52Z" fill="white"/>
<path d="M290.803 149.204C297.064 149.204 302.034 151.301 305.713 155.497C309.392 159.628 311.232 165.243 311.232 172.343V204.003H292.255V174.86C292.255 171.762 291.448 169.342 289.835 167.599C288.221 165.792 286.059 164.888 283.348 164.888C280.508 164.888 278.281 165.792 276.668 167.599C275.054 169.342 274.247 171.762 274.247 174.86V204.003H255.271V149.688H274.247V157.433C275.925 154.98 278.184 153.012 281.024 151.527C283.864 149.978 287.124 149.204 290.803 149.204Z" fill="white"/>
<path d="M331.229 144.653C327.873 144.653 325.162 143.749 323.096 141.942C321.096 140.07 320.095 137.747 320.095 134.971C320.095 132.131 321.096 129.775 323.096 127.904C325.162 126.032 327.873 125.096 331.229 125.096C334.521 125.096 337.167 126.032 339.168 127.904C341.234 129.775 342.266 132.131 342.266 134.971C342.266 137.747 341.234 140.07 339.168 141.942C337.167 143.749 334.521 144.653 331.229 144.653ZM340.621 149.688V204.003H321.644V149.688H340.621Z" fill="white"/>
<path d="M376.697 204.68C371.275 204.68 366.402 203.551 362.077 201.292C357.817 199.033 354.461 195.805 352.008 191.61C349.555 187.415 348.329 182.477 348.329 176.797C348.329 171.181 349.555 166.276 352.008 162.08C354.525 157.885 357.914 154.658 362.174 152.399C366.499 150.139 371.372 149.01 376.794 149.01C382.215 149.01 387.056 150.139 391.316 152.399C395.641 154.658 399.029 157.885 401.482 162.08C403.999 166.276 405.258 171.181 405.258 176.797C405.258 182.412 403.999 187.35 401.482 191.61C399.029 195.805 395.641 199.033 391.316 201.292C386.992 203.551 382.119 204.68 376.697 204.68ZM376.697 188.221C379.343 188.221 381.538 187.253 383.28 185.317C385.088 183.316 385.991 180.476 385.991 176.797C385.991 173.118 385.088 170.31 383.28 168.374C381.538 166.437 379.375 165.469 376.794 165.469C374.212 165.469 372.049 166.437 370.307 168.374C368.564 170.31 367.693 173.118 367.693 176.797C367.693 180.54 368.532 183.38 370.21 185.317C371.888 187.253 374.05 188.221 376.697 188.221Z" fill="white"/>
<path d="M431.955 159.273C434.085 156.174 436.667 153.722 439.7 151.914C442.734 150.107 445.994 149.204 449.479 149.204V169.439H444.154C440.023 169.439 436.957 170.245 434.956 171.859C432.955 173.473 431.955 176.28 431.955 180.282V204.003H412.979V149.688H431.955V159.273Z" fill="white"/>
<path d="M96.022 80.9225H71.8174L68.1383 92.0566H48.1937L73.076 23.7997H94.957L119.742 92.0566H99.7011L96.022 80.9225ZM91.2779 66.3997L83.9197 44.3251L76.6583 66.3997H91.2779Z" stroke="white" stroke-width="12" mask="url(#path-1-outside-1_28_37)"/>
<path d="M161.46 37.2574C167.721 37.2574 172.691 39.3551 176.37 43.5506C180.049 47.6815 181.888 53.297 181.888 60.397V92.0566H162.912V62.9143C162.912 59.8161 162.105 57.3956 160.492 55.6529C158.878 53.8456 156.716 52.942 154.005 52.942C151.165 52.942 148.938 53.8456 147.324 55.6529C145.711 57.3956 144.904 59.8161 144.904 62.9143V92.0566H125.927V37.7415H144.904V45.487C146.582 43.0342 148.841 41.0656 151.681 39.581C154.521 38.032 157.781 37.2574 161.46 37.2574Z" stroke="white" stroke-width="12" mask="url(#path-1-outside-1_28_37)"/>
<path d="M189.203 64.8506C189.203 59.2352 190.203 54.3297 192.204 50.1342C194.27 45.9388 197.077 42.7115 200.627 40.4524C204.177 38.1933 208.115 37.0638 212.439 37.0638C215.925 37.0638 219.023 37.8061 221.734 39.2906C224.509 40.7106 226.671 42.6792 228.221 45.1965V20.411H247.294V92.0566H228.221V84.5047C226.736 87.022 224.638 89.0229 221.927 90.5075C219.216 91.992 216.021 92.7343 212.342 92.7343C208.018 92.7343 204.081 91.6048 200.531 89.3457C197.045 87.0866 194.27 83.8593 192.204 79.6638C190.203 75.4038 189.203 70.4661 189.203 64.8506ZM228.317 64.8506C228.317 61.3652 227.349 58.622 225.413 56.6211C223.541 54.6202 221.217 53.6197 218.442 53.6197C215.602 53.6197 213.246 54.6202 211.374 56.6211C209.502 58.5574 208.566 61.3006 208.566 64.8506C208.566 68.3361 209.502 71.1115 211.374 73.177C213.246 75.1779 215.602 76.1784 218.442 76.1784C221.217 76.1784 223.541 75.1779 225.413 73.177C227.349 71.1761 228.317 68.4006 228.317 64.8506Z" stroke="white" stroke-width="12" mask="url(#path-1-outside-1_28_37)"/>
<path d="M277.084 47.3265C279.214 44.2283 281.795 41.7756 284.829 39.9683C287.863 38.161 291.122 37.2574 294.608 37.2574V57.4924H289.283C285.152 57.4924 282.086 58.2993 280.085 59.9129C278.084 61.5265 277.084 64.3343 277.084 68.3361V92.0566H258.107V37.7415H277.084V47.3265Z" stroke="white" stroke-width="12" mask="url(#path-1-outside-1_28_37)"/>
<path d="M353.305 64.2697C353.305 65.7543 353.208 67.2388 353.015 68.7234H317.095C317.289 71.6925 318.096 73.9193 319.516 75.4038C321 76.8238 322.872 77.5338 325.131 77.5338C328.294 77.5338 330.553 76.1138 331.908 73.2738H352.143C351.304 77.0175 349.658 80.3738 347.206 83.3429C344.818 86.2475 341.784 88.5388 338.105 90.217C334.426 91.8952 330.359 92.7343 325.906 92.7343C320.548 92.7343 315.772 91.6048 311.577 89.3457C307.446 87.0866 304.186 83.8593 301.798 79.6638C299.474 75.4684 298.312 70.5306 298.312 64.8506C298.312 59.1706 299.474 54.2652 301.798 50.1342C304.122 45.9388 307.349 42.7115 311.48 40.4524C315.675 38.1933 320.484 37.0638 325.906 37.0638C331.263 37.0638 336.007 38.1611 340.138 40.3556C344.269 42.5501 347.496 45.7129 349.82 49.8438C352.143 53.9102 353.305 58.7188 353.305 64.2697ZM333.942 59.5256C333.942 57.202 333.167 55.3947 331.618 54.1038C330.069 52.7483 328.132 52.0706 325.809 52.0706C323.485 52.0706 321.581 52.7161 320.097 54.007C318.612 55.2333 317.644 57.0729 317.192 59.5256H333.942ZM337.621 24.0901L313.416 33.5783V20.7015L337.621 9.76102V24.0901Z" stroke="white" stroke-width="12" mask="url(#path-1-outside-1_28_37)"/>
<path d="M398.579 77.5338H419.782V92.0566H379.603V23.7997H398.579V77.5338Z" stroke="white" stroke-width="12" mask="url(#path-1-outside-1_28_37)"/>
<path d="M436.359 92.8311C433.002 92.8311 430.291 91.9275 428.226 90.1202C426.225 88.2484 425.225 85.8925 425.225 83.0525C425.225 80.2125 426.225 77.8566 428.226 75.9847C430.291 74.1129 433.002 73.177 436.359 73.177C439.651 73.177 442.297 74.1129 444.298 75.9847C446.363 77.8566 447.396 80.2125 447.396 83.0525C447.396 85.8279 446.363 88.1516 444.298 90.0234C442.297 91.8952 439.651 92.8311 436.359 92.8311Z" stroke="white" stroke-width="12" mask="url(#path-1-outside-1_28_37)"/>
<path d="M41.2221 204.68C34.832 204.68 28.9584 203.196 23.6011 200.227C18.2438 197.193 13.9838 193.03 10.8211 187.737C7.72292 182.38 6.17383 176.345 6.17383 169.632C6.17383 162.919 7.72292 156.917 10.8211 151.624C13.9838 146.267 18.2438 142.104 23.6011 139.134C28.9584 136.165 34.832 134.681 41.2221 134.681C47.6766 134.681 53.5503 136.165 58.843 139.134C64.2003 142.104 68.428 146.267 71.5262 151.624C74.6244 156.917 76.1735 162.919 76.1735 169.632C76.1735 176.345 74.6244 182.38 71.5262 187.737C68.428 193.03 64.2003 197.193 58.843 200.227C53.4857 203.196 47.6121 204.68 41.2221 204.68ZM41.2221 187.06C46.063 187.06 49.8712 185.478 52.6466 182.315C55.4866 179.153 56.9066 174.925 56.9066 169.632C56.9066 164.21 55.4866 159.95 52.6466 156.852C49.8712 153.689 46.063 152.108 41.2221 152.108C36.3166 152.108 32.4761 153.689 29.7007 156.852C26.9252 159.95 25.5375 164.21 25.5375 169.632C25.5375 174.99 26.9252 179.25 29.7007 182.412C32.4761 185.51 36.3166 187.06 41.2221 187.06Z" stroke="white" stroke-width="12" mask="url(#path-1-outside-1_28_37)"/>
<path d="M93.9018 204.777C90.5454 204.777 87.8345 203.874 85.7691 202.066C83.7682 200.195 82.7677 197.839 82.7677 194.999C82.7677 192.159 83.7682 189.803 85.7691 187.931C87.8345 186.059 90.5454 185.123 93.9018 185.123C97.1936 185.123 99.84 186.059 101.841 187.931C103.906 189.803 104.939 192.159 104.939 194.999C104.939 197.774 103.906 200.098 101.841 201.97C99.84 203.841 97.1936 204.777 93.9018 204.777Z" stroke="white" stroke-width="12" mask="url(#path-1-outside-1_28_37)"/>
<path d="M177.571 135.746V180.96C177.571 188.641 175.473 194.515 171.278 198.581C167.147 202.647 161.435 204.68 154.141 204.68C146.395 204.68 140.199 202.518 135.552 198.194C130.969 193.869 128.678 187.64 128.678 179.508H147.46C147.525 184.865 149.494 187.544 153.366 187.544C156.852 187.544 158.595 185.349 158.595 180.96V135.746H177.571Z" stroke="white" stroke-width="12" mask="url(#path-1-outside-1_28_37)"/>
<path d="M244.471 149.688V204.003H225.398V196.257C223.784 198.71 221.557 200.711 218.717 202.26C215.877 203.745 212.618 204.487 208.939 204.487C202.613 204.487 197.611 202.421 193.932 198.29C190.317 194.095 188.51 188.415 188.51 181.25V149.688H207.389V178.83C207.389 181.928 208.196 184.381 209.81 186.188C211.488 187.931 213.683 188.802 216.394 188.802C219.169 188.802 221.364 187.931 222.977 186.188C224.591 184.381 225.398 181.928 225.398 178.83V149.688H244.471ZM228.496 136.52L204.291 146.009V133.132L228.496 122.191V136.52Z" stroke="white" stroke-width="12" mask="url(#path-1-outside-1_28_37)"/>
<path d="M290.803 149.204C297.064 149.204 302.034 151.301 305.713 155.497C309.392 159.628 311.232 165.243 311.232 172.343V204.003H292.255V174.86C292.255 171.762 291.448 169.342 289.835 167.599C288.221 165.792 286.059 164.888 283.348 164.888C280.508 164.888 278.281 165.792 276.668 167.599C275.054 169.342 274.247 171.762 274.247 174.86V204.003H255.271V149.688H274.247V157.433C275.925 154.98 278.184 153.012 281.024 151.527C283.864 149.978 287.124 149.204 290.803 149.204Z" stroke="white" stroke-width="12" mask="url(#path-1-outside-1_28_37)"/>
<path d="M331.229 144.653C327.873 144.653 325.162 143.749 323.096 141.942C321.096 140.07 320.095 137.747 320.095 134.971C320.095 132.131 321.096 129.775 323.096 127.904C325.162 126.032 327.873 125.096 331.229 125.096C334.521 125.096 337.167 126.032 339.168 127.904C341.234 129.775 342.266 132.131 342.266 134.971C342.266 137.747 341.234 140.07 339.168 141.942C337.167 143.749 334.521 144.653 331.229 144.653ZM340.621 149.688V204.003H321.644V149.688H340.621Z" stroke="white" stroke-width="12" mask="url(#path-1-outside-1_28_37)"/>
<path d="M376.697 204.68C371.275 204.68 366.402 203.551 362.077 201.292C357.817 199.033 354.461 195.805 352.008 191.61C349.555 187.415 348.329 182.477 348.329 176.797C348.329 171.181 349.555 166.276 352.008 162.08C354.525 157.885 357.914 154.658 362.174 152.399C366.499 150.139 371.372 149.01 376.794 149.01C382.215 149.01 387.056 150.139 391.316 152.399C395.641 154.658 399.029 157.885 401.482 162.08C403.999 166.276 405.258 171.181 405.258 176.797C405.258 182.412 403.999 187.35 401.482 191.61C399.029 195.805 395.641 199.033 391.316 201.292C386.992 203.551 382.119 204.68 376.697 204.68ZM376.697 188.221C379.343 188.221 381.538 187.253 383.28 185.317C385.088 183.316 385.991 180.476 385.991 176.797C385.991 173.118 385.088 170.31 383.28 168.374C381.538 166.437 379.375 165.469 376.794 165.469C374.212 165.469 372.049 166.437 370.307 168.374C368.564 170.31 367.693 173.118 367.693 176.797C367.693 180.54 368.532 183.38 370.21 185.317C371.888 187.253 374.05 188.221 376.697 188.221Z" stroke="white" stroke-width="12" mask="url(#path-1-outside-1_28_37)"/>
<path d="M431.955 159.273C434.085 156.174 436.667 153.722 439.7 151.914C442.734 150.107 445.994 149.204 449.479 149.204V169.439H444.154C440.023 169.439 436.957 170.245 434.956 171.859C432.955 173.473 431.955 176.28 431.955 180.282V204.003H412.979V149.688H431.955V159.273Z" stroke="white" stroke-width="12" mask="url(#path-1-outside-1_28_37)"/>
<mask id="path-2-outside-2_28_37" maskUnits="userSpaceOnUse" x="2.10132" y="2.76102" width="452" height="207" fill="black">
<rect fill="white" x="2.10132" y="2.76102" width="452" height="207"/>
<path d="M95.9495 80.9225H71.7449L68.0658 92.0566H48.1212L73.0035 23.7997H94.8845L119.67 92.0566H99.6286L95.9495 80.9225ZM91.2054 66.3997L83.8472 44.3251L76.5858 66.3997H91.2054Z"/>
<path d="M161.387 37.2574C167.648 37.2574 172.618 39.3551 176.297 43.5506C179.976 47.6815 181.816 53.297 181.816 60.397V92.0566H162.84V62.9143C162.84 59.8161 162.033 57.3956 160.419 55.6529C158.805 53.8456 156.643 52.942 153.932 52.942C151.092 52.942 148.865 53.8456 147.252 55.6529C145.638 57.3956 144.831 59.8161 144.831 62.9143V92.0566H125.855V37.7415H144.831V45.487C146.51 43.0342 148.769 41.0656 151.609 39.581C154.449 38.032 157.708 37.2574 161.387 37.2574Z"/>
<path d="M189.13 64.8506C189.13 59.2352 190.131 54.3297 192.132 50.1342C194.197 45.9388 197.005 42.7115 200.555 40.4524C204.105 38.1933 208.042 37.0638 212.367 37.0638C215.852 37.0638 218.95 37.8061 221.661 39.2906C224.437 40.7106 226.599 42.6792 228.148 45.1965V20.411H247.221V92.0566H228.148V84.5047C226.663 87.022 224.566 89.0229 221.855 90.5075C219.144 91.992 215.949 92.7343 212.27 92.7343C207.945 92.7343 204.008 91.6048 200.458 89.3457C196.973 87.0866 194.197 83.8593 192.132 79.6638C190.131 75.4038 189.13 70.4661 189.13 64.8506ZM228.245 64.8506C228.245 61.3652 227.277 58.622 225.34 56.6211C223.468 54.6202 221.145 53.6197 218.369 53.6197C215.529 53.6197 213.173 54.6202 211.302 56.6211C209.43 58.5574 208.494 61.3006 208.494 64.8506C208.494 68.3361 209.43 71.1115 211.302 73.177C213.173 75.1779 215.529 76.1784 218.369 76.1784C221.145 76.1784 223.468 75.1779 225.34 73.177C227.277 71.1761 228.245 68.4006 228.245 64.8506Z"/>
<path d="M277.011 47.3265C279.141 44.2283 281.723 41.7756 284.756 39.9683C287.79 38.161 291.05 37.2574 294.535 37.2574V57.4924H289.21C285.079 57.4924 282.013 58.2993 280.012 59.9129C278.011 61.5265 277.011 64.3343 277.011 68.3361V92.0566H258.035V37.7415H277.011V47.3265Z"/>
<path d="M353.233 64.2697C353.233 65.7543 353.136 67.2388 352.942 68.7234H317.023C317.216 71.6925 318.023 73.9193 319.443 75.4038C320.928 76.8238 322.8 77.5338 325.059 77.5338C328.221 77.5338 330.48 76.1138 331.836 73.2738H352.071C351.232 77.0175 349.586 80.3738 347.133 83.3429C344.745 86.2475 341.711 88.5388 338.032 90.217C334.353 91.8952 330.287 92.7343 325.833 92.7343C320.476 92.7343 315.699 91.6048 311.504 89.3457C307.373 87.0866 304.114 83.8593 301.725 79.6638C299.402 75.4684 298.24 70.5306 298.24 64.8506C298.24 59.1706 299.402 54.2652 301.725 50.1342C304.049 45.9388 307.276 42.7115 311.407 40.4524C315.603 38.1933 320.411 37.0638 325.833 37.0638C331.19 37.0638 335.935 38.1611 340.065 40.3556C344.196 42.5501 347.424 45.7129 349.747 49.8438C352.071 53.9102 353.233 58.7188 353.233 64.2697ZM333.869 59.5256C333.869 57.202 333.095 55.3947 331.545 54.1038C329.996 52.7483 328.06 52.0706 325.736 52.0706C323.413 52.0706 321.509 52.7161 320.024 54.007C318.54 55.2333 317.571 57.0729 317.12 59.5256H333.869ZM337.548 24.0901L313.344 33.5783V20.7015L337.548 9.76102V24.0901Z"/>
<path d="M398.507 77.5338H419.71V92.0566H379.53V23.7997H398.507V77.5338Z"/>
<path d="M436.286 92.8311C432.93 92.8311 430.219 91.9275 428.153 90.1202C426.153 88.2484 425.152 85.8925 425.152 83.0525C425.152 80.2125 426.153 77.8566 428.153 75.9847C430.219 74.1129 432.93 73.177 436.286 73.177C439.578 73.177 442.224 74.1129 444.225 75.9847C446.291 77.8566 447.323 80.2125 447.323 83.0525C447.323 85.8279 446.291 88.1516 444.225 90.0234C442.224 91.8952 439.578 92.8311 436.286 92.8311Z"/>
<path d="M41.1495 204.68C34.7595 204.68 28.8859 203.196 23.5286 200.227C18.1713 197.193 13.9113 193.03 10.7486 187.737C7.65041 182.38 6.10132 176.345 6.10132 169.632C6.10132 162.919 7.65041 156.917 10.7486 151.624C13.9113 146.267 18.1713 142.104 23.5286 139.134C28.8859 136.165 34.7595 134.681 41.1495 134.681C47.6041 134.681 53.4777 136.165 58.7705 139.134C64.1278 142.104 68.3555 146.267 71.4537 151.624C74.5519 156.917 76.101 162.919 76.101 169.632C76.101 176.345 74.5519 182.38 71.4537 187.737C68.3555 193.03 64.1278 197.193 58.7705 200.227C53.4132 203.196 47.5396 204.68 41.1495 204.68ZM41.1495 187.06C45.9905 187.06 49.7986 185.478 52.5741 182.315C55.4141 179.153 56.8341 174.925 56.8341 169.632C56.8341 164.21 55.4141 159.95 52.5741 156.852C49.7986 153.689 45.9905 152.108 41.1495 152.108C36.2441 152.108 32.4036 153.689 29.6282 156.852C26.8527 159.95 25.465 164.21 25.465 169.632C25.465 174.99 26.8527 179.25 29.6282 182.412C32.4036 185.51 36.2441 187.06 41.1495 187.06Z"/>
<path d="M93.8293 204.777C90.4729 204.777 87.762 203.874 85.6965 202.066C83.6956 200.195 82.6952 197.839 82.6952 194.999C82.6952 192.159 83.6956 189.803 85.6965 187.931C87.762 186.059 90.4729 185.123 93.8293 185.123C97.1211 185.123 99.7675 186.059 101.768 187.931C103.834 189.803 104.867 192.159 104.867 194.999C104.867 197.774 103.834 200.098 101.768 201.97C99.7675 203.841 97.1211 204.777 93.8293 204.777Z"/>
<path d="M177.498 135.746V180.96C177.498 188.641 175.401 194.515 171.205 198.581C167.074 202.647 161.362 204.68 154.068 204.68C146.323 204.68 140.127 202.518 135.479 198.194C130.897 193.869 128.605 187.64 128.605 179.508H147.388C147.453 184.865 149.421 187.544 153.294 187.544C156.779 187.544 158.522 185.349 158.522 180.96V135.746H177.498Z"/>
<path d="M244.398 149.688V204.003H225.325V196.257C223.712 198.71 221.485 200.711 218.645 202.26C215.805 203.745 212.545 204.487 208.866 204.487C202.541 204.487 197.538 202.421 193.859 198.29C190.245 194.095 188.437 188.415 188.437 181.25V149.688H207.317V178.83C207.317 181.928 208.124 184.381 209.737 186.188C211.416 187.931 213.61 188.802 216.321 188.802C219.097 188.802 221.291 187.931 222.905 186.188C224.518 184.381 225.325 181.928 225.325 178.83V149.688H244.398ZM228.423 136.52L204.219 146.009V133.132L228.423 122.191V136.52Z"/>
<path d="M290.73 149.204C296.991 149.204 301.961 151.301 305.641 155.497C309.32 159.628 311.159 165.243 311.159 172.343V204.003H292.183V174.86C292.183 171.762 291.376 169.342 289.762 167.599C288.149 165.792 285.986 164.888 283.275 164.888C280.435 164.888 278.209 165.792 276.595 167.599C274.981 169.342 274.175 171.762 274.175 174.86V204.003H255.198V149.688H274.175V157.433C275.853 154.98 278.112 153.012 280.952 151.527C283.792 149.978 287.051 149.204 290.73 149.204Z"/>
<path d="M331.157 144.653C327.8 144.653 325.089 143.749 323.024 141.942C321.023 140.07 320.023 137.747 320.023 134.971C320.023 132.131 321.023 129.775 323.024 127.904C325.089 126.032 327.8 125.096 331.157 125.096C334.448 125.096 337.095 126.032 339.096 127.904C341.161 129.775 342.194 132.131 342.194 134.971C342.194 137.747 341.161 140.07 339.096 141.942C337.095 143.749 334.448 144.653 331.157 144.653ZM340.548 149.688V204.003H321.572V149.688H340.548Z"/>
<path d="M376.624 204.68C371.202 204.68 366.329 203.551 362.005 201.292C357.745 199.033 354.388 195.805 351.936 191.61C349.483 187.415 348.256 182.477 348.256 176.797C348.256 171.181 349.483 166.276 351.936 162.08C354.453 157.885 357.841 154.658 362.101 152.399C366.426 150.139 371.299 149.01 376.721 149.01C382.143 149.01 386.984 150.139 391.244 152.399C395.568 154.658 398.957 157.885 401.41 162.08C403.927 166.276 405.186 171.181 405.186 176.797C405.186 182.412 403.927 187.35 401.41 191.61C398.957 195.805 395.568 199.033 391.244 201.292C386.919 203.551 382.046 204.68 376.624 204.68ZM376.624 188.221C379.271 188.221 381.465 187.253 383.208 185.317C385.015 183.316 385.919 180.476 385.919 176.797C385.919 173.118 385.015 170.31 383.208 168.374C381.465 166.437 379.303 165.469 376.721 165.469C374.139 165.469 371.977 166.437 370.234 168.374C368.491 170.31 367.62 173.118 367.62 176.797C367.62 180.54 368.459 183.38 370.137 185.317C371.816 187.253 373.978 188.221 376.624 188.221Z"/>
<path d="M431.882 159.273C434.012 156.174 436.594 153.722 439.628 151.914C442.662 150.107 445.921 149.204 449.407 149.204V169.439H444.082C439.951 169.439 436.885 170.245 434.884 171.859C432.883 173.473 431.882 176.28 431.882 180.282V204.003H412.906V149.688H431.882V159.273Z"/>
</mask>
<path d="M95.9495 80.9225H71.7449L68.0658 92.0566H48.1212L73.0035 23.7997H94.8845L119.67 92.0566H99.6286L95.9495 80.9225ZM91.2054 66.3997L83.8472 44.3251L76.5858 66.3997H91.2054Z" fill="white"/>
<path d="M161.387 37.2574C167.648 37.2574 172.618 39.3551 176.297 43.5506C179.976 47.6815 181.816 53.297 181.816 60.397V92.0566H162.84V62.9143C162.84 59.8161 162.033 57.3956 160.419 55.6529C158.805 53.8456 156.643 52.942 153.932 52.942C151.092 52.942 148.865 53.8456 147.252 55.6529C145.638 57.3956 144.831 59.8161 144.831 62.9143V92.0566H125.855V37.7415H144.831V45.487C146.51 43.0342 148.769 41.0656 151.609 39.581C154.449 38.032 157.708 37.2574 161.387 37.2574Z" fill="white"/>
<path d="M189.13 64.8506C189.13 59.2352 190.131 54.3297 192.132 50.1342C194.197 45.9388 197.005 42.7115 200.555 40.4524C204.105 38.1933 208.042 37.0638 212.367 37.0638C215.852 37.0638 218.95 37.8061 221.661 39.2906C224.437 40.7106 226.599 42.6792 228.148 45.1965V20.411H247.221V92.0566H228.148V84.5047C226.663 87.022 224.566 89.0229 221.855 90.5075C219.144 91.992 215.949 92.7343 212.27 92.7343C207.945 92.7343 204.008 91.6048 200.458 89.3457C196.973 87.0866 194.197 83.8593 192.132 79.6638C190.131 75.4038 189.13 70.4661 189.13 64.8506ZM228.245 64.8506C228.245 61.3652 227.277 58.622 225.34 56.6211C223.468 54.6202 221.145 53.6197 218.369 53.6197C215.529 53.6197 213.173 54.6202 211.302 56.6211C209.43 58.5574 208.494 61.3006 208.494 64.8506C208.494 68.3361 209.43 71.1115 211.302 73.177C213.173 75.1779 215.529 76.1784 218.369 76.1784C221.145 76.1784 223.468 75.1779 225.34 73.177C227.277 71.1761 228.245 68.4006 228.245 64.8506Z" fill="white"/>
<path d="M277.011 47.3265C279.141 44.2283 281.723 41.7756 284.756 39.9683C287.79 38.161 291.05 37.2574 294.535 37.2574V57.4924H289.21C285.079 57.4924 282.013 58.2993 280.012 59.9129C278.011 61.5265 277.011 64.3343 277.011 68.3361V92.0566H258.035V37.7415H277.011V47.3265Z" fill="white"/>
<path d="M353.233 64.2697C353.233 65.7543 353.136 67.2388 352.942 68.7234H317.023C317.216 71.6925 318.023 73.9193 319.443 75.4038C320.928 76.8238 322.8 77.5338 325.059 77.5338C328.221 77.5338 330.48 76.1138 331.836 73.2738H352.071C351.232 77.0175 349.586 80.3738 347.133 83.3429C344.745 86.2475 341.711 88.5388 338.032 90.217C334.353 91.8952 330.287 92.7343 325.833 92.7343C320.476 92.7343 315.699 91.6048 311.504 89.3457C307.373 87.0866 304.114 83.8593 301.725 79.6638C299.402 75.4684 298.24 70.5306 298.24 64.8506C298.24 59.1706 299.402 54.2652 301.725 50.1342C304.049 45.9388 307.276 42.7115 311.407 40.4524C315.603 38.1933 320.411 37.0638 325.833 37.0638C331.19 37.0638 335.935 38.1611 340.065 40.3556C344.196 42.5501 347.424 45.7129 349.747 49.8438C352.071 53.9102 353.233 58.7188 353.233 64.2697ZM333.869 59.5256C333.869 57.202 333.095 55.3947 331.545 54.1038C329.996 52.7483 328.06 52.0706 325.736 52.0706C323.413 52.0706 321.509 52.7161 320.024 54.007C318.54 55.2333 317.571 57.0729 317.12 59.5256H333.869ZM337.548 24.0901L313.344 33.5783V20.7015L337.548 9.76102V24.0901Z" fill="white"/>
<path d="M398.507 77.5338H419.71V92.0566H379.53V23.7997H398.507V77.5338Z" fill="white"/>
<path d="M436.286 92.8311C432.93 92.8311 430.219 91.9275 428.153 90.1202C426.153 88.2484 425.152 85.8925 425.152 83.0525C425.152 80.2125 426.153 77.8566 428.153 75.9847C430.219 74.1129 432.93 73.177 436.286 73.177C439.578 73.177 442.224 74.1129 444.225 75.9847C446.291 77.8566 447.323 80.2125 447.323 83.0525C447.323 85.8279 446.291 88.1516 444.225 90.0234C442.224 91.8952 439.578 92.8311 436.286 92.8311Z" fill="white"/>
<path d="M41.1495 204.68C34.7595 204.68 28.8859 203.196 23.5286 200.227C18.1713 197.193 13.9113 193.03 10.7486 187.737C7.65041 182.38 6.10132 176.345 6.10132 169.632C6.10132 162.919 7.65041 156.917 10.7486 151.624C13.9113 146.267 18.1713 142.104 23.5286 139.134C28.8859 136.165 34.7595 134.681 41.1495 134.681C47.6041 134.681 53.4777 136.165 58.7705 139.134C64.1278 142.104 68.3555 146.267 71.4537 151.624C74.5519 156.917 76.101 162.919 76.101 169.632C76.101 176.345 74.5519 182.38 71.4537 187.737C68.3555 193.03 64.1278 197.193 58.7705 200.227C53.4132 203.196 47.5396 204.68 41.1495 204.68ZM41.1495 187.06C45.9905 187.06 49.7986 185.478 52.5741 182.315C55.4141 179.153 56.8341 174.925 56.8341 169.632C56.8341 164.21 55.4141 159.95 52.5741 156.852C49.7986 153.689 45.9905 152.108 41.1495 152.108C36.2441 152.108 32.4036 153.689 29.6282 156.852C26.8527 159.95 25.465 164.21 25.465 169.632C25.465 174.99 26.8527 179.25 29.6282 182.412C32.4036 185.51 36.2441 187.06 41.1495 187.06Z" fill="white"/>
<path d="M93.8293 204.777C90.4729 204.777 87.762 203.874 85.6965 202.066C83.6956 200.195 82.6952 197.839 82.6952 194.999C82.6952 192.159 83.6956 189.803 85.6965 187.931C87.762 186.059 90.4729 185.123 93.8293 185.123C97.1211 185.123 99.7675 186.059 101.768 187.931C103.834 189.803 104.867 192.159 104.867 194.999C104.867 197.774 103.834 200.098 101.768 201.97C99.7675 203.841 97.1211 204.777 93.8293 204.777Z" fill="white"/>
<path d="M177.498 135.746V180.96C177.498 188.641 175.401 194.515 171.205 198.581C167.074 202.647 161.362 204.68 154.068 204.68C146.323 204.68 140.127 202.518 135.479 198.194C130.897 193.869 128.605 187.64 128.605 179.508H147.388C147.453 184.865 149.421 187.544 153.294 187.544C156.779 187.544 158.522 185.349 158.522 180.96V135.746H177.498Z" fill="white"/>
<path d="M244.398 149.688V204.003H225.325V196.257C223.712 198.71 221.485 200.711 218.645 202.26C215.805 203.745 212.545 204.487 208.866 204.487C202.541 204.487 197.538 202.421 193.859 198.29C190.245 194.095 188.437 188.415 188.437 181.25V149.688H207.317V178.83C207.317 181.928 208.124 184.381 209.737 186.188C211.416 187.931 213.61 188.802 216.321 188.802C219.097 188.802 221.291 187.931 222.905 186.188C224.518 184.381 225.325 181.928 225.325 178.83V149.688H244.398ZM228.423 136.52L204.219 146.009V133.132L228.423 122.191V136.52Z" fill="white"/>
<path d="M290.73 149.204C296.991 149.204 301.961 151.301 305.641 155.497C309.32 159.628 311.159 165.243 311.159 172.343V204.003H292.183V174.86C292.183 171.762 291.376 169.342 289.762 167.599C288.149 165.792 285.986 164.888 283.275 164.888C280.435 164.888 278.209 165.792 276.595 167.599C274.981 169.342 274.175 171.762 274.175 174.86V204.003H255.198V149.688H274.175V157.433C275.853 154.98 278.112 153.012 280.952 151.527C283.792 149.978 287.051 149.204 290.73 149.204Z" fill="white"/>
<path d="M331.157 144.653C327.8 144.653 325.089 143.749 323.024 141.942C321.023 140.07 320.023 137.747 320.023 134.971C320.023 132.131 321.023 129.775 323.024 127.904C325.089 126.032 327.8 125.096 331.157 125.096C334.448 125.096 337.095 126.032 339.096 127.904C341.161 129.775 342.194 132.131 342.194 134.971C342.194 137.747 341.161 140.07 339.096 141.942C337.095 143.749 334.448 144.653 331.157 144.653ZM340.548 149.688V204.003H321.572V149.688H340.548Z" fill="white"/>
<path d="M376.624 204.68C371.202 204.68 366.329 203.551 362.005 201.292C357.745 199.033 354.388 195.805 351.936 191.61C349.483 187.415 348.256 182.477 348.256 176.797C348.256 171.181 349.483 166.276 351.936 162.08C354.453 157.885 357.841 154.658 362.101 152.399C366.426 150.139 371.299 149.01 376.721 149.01C382.143 149.01 386.984 150.139 391.244 152.399C395.568 154.658 398.957 157.885 401.41 162.08C403.927 166.276 405.186 171.181 405.186 176.797C405.186 182.412 403.927 187.35 401.41 191.61C398.957 195.805 395.568 199.033 391.244 201.292C386.919 203.551 382.046 204.68 376.624 204.68ZM376.624 188.221C379.271 188.221 381.465 187.253 383.208 185.317C385.015 183.316 385.919 180.476 385.919 176.797C385.919 173.118 385.015 170.31 383.208 168.374C381.465 166.437 379.303 165.469 376.721 165.469C374.139 165.469 371.977 166.437 370.234 168.374C368.491 170.31 367.62 173.118 367.62 176.797C367.62 180.54 368.459 183.38 370.137 185.317C371.816 187.253 373.978 188.221 376.624 188.221Z" fill="white"/>
<path d="M431.882 159.273C434.012 156.174 436.594 153.722 439.628 151.914C442.662 150.107 445.921 149.204 449.407 149.204V169.439H444.082C439.951 169.439 436.885 170.245 434.884 171.859C432.883 173.473 431.882 176.28 431.882 180.282V204.003H412.906V149.688H431.882V159.273Z" fill="white"/>
<path d="M95.9495 80.9225H71.7449L68.0658 92.0566H48.1212L73.0035 23.7997H94.8845L119.67 92.0566H99.6286L95.9495 80.9225ZM91.2054 66.3997L83.8472 44.3251L76.5858 66.3997H91.2054Z" stroke="#222222" stroke-width="8" mask="url(#path-2-outside-2_28_37)"/>
<path d="M161.387 37.2574C167.648 37.2574 172.618 39.3551 176.297 43.5506C179.976 47.6815 181.816 53.297 181.816 60.397V92.0566H162.84V62.9143C162.84 59.8161 162.033 57.3956 160.419 55.6529C158.805 53.8456 156.643 52.942 153.932 52.942C151.092 52.942 148.865 53.8456 147.252 55.6529C145.638 57.3956 144.831 59.8161 144.831 62.9143V92.0566H125.855V37.7415H144.831V45.487C146.51 43.0342 148.769 41.0656 151.609 39.581C154.449 38.032 157.708 37.2574 161.387 37.2574Z" stroke="#222222" stroke-width="8" mask="url(#path-2-outside-2_28_37)"/>
<path d="M189.13 64.8506C189.13 59.2352 190.131 54.3297 192.132 50.1342C194.197 45.9388 197.005 42.7115 200.555 40.4524C204.105 38.1933 208.042 37.0638 212.367 37.0638C215.852 37.0638 218.95 37.8061 221.661 39.2906C224.437 40.7106 226.599 42.6792 228.148 45.1965V20.411H247.221V92.0566H228.148V84.5047C226.663 87.022 224.566 89.0229 221.855 90.5075C219.144 91.992 215.949 92.7343 212.27 92.7343C207.945 92.7343 204.008 91.6048 200.458 89.3457C196.973 87.0866 194.197 83.8593 192.132 79.6638C190.131 75.4038 189.13 70.4661 189.13 64.8506ZM228.245 64.8506C228.245 61.3652 227.277 58.622 225.34 56.6211C223.468 54.6202 221.145 53.6197 218.369 53.6197C215.529 53.6197 213.173 54.6202 211.302 56.6211C209.43 58.5574 208.494 61.3006 208.494 64.8506C208.494 68.3361 209.43 71.1115 211.302 73.177C213.173 75.1779 215.529 76.1784 218.369 76.1784C221.145 76.1784 223.468 75.1779 225.34 73.177C227.277 71.1761 228.245 68.4006 228.245 64.8506Z" stroke="#222222" stroke-width="8" mask="url(#path-2-outside-2_28_37)"/>
<path d="M277.011 47.3265C279.141 44.2283 281.723 41.7756 284.756 39.9683C287.79 38.161 291.05 37.2574 294.535 37.2574V57.4924H289.21C285.079 57.4924 282.013 58.2993 280.012 59.9129C278.011 61.5265 277.011 64.3343 277.011 68.3361V92.0566H258.035V37.7415H277.011V47.3265Z" stroke="#222222" stroke-width="8" mask="url(#path-2-outside-2_28_37)"/>
<path d="M353.233 64.2697C353.233 65.7543 353.136 67.2388 352.942 68.7234H317.023C317.216 71.6925 318.023 73.9193 319.443 75.4038C320.928 76.8238 322.8 77.5338 325.059 77.5338C328.221 77.5338 330.48 76.1138 331.836 73.2738H352.071C351.232 77.0175 349.586 80.3738 347.133 83.3429C344.745 86.2475 341.711 88.5388 338.032 90.217C334.353 91.8952 330.287 92.7343 325.833 92.7343C320.476 92.7343 315.699 91.6048 311.504 89.3457C307.373 87.0866 304.114 83.8593 301.725 79.6638C299.402 75.4684 298.24 70.5306 298.24 64.8506C298.24 59.1706 299.402 54.2652 301.725 50.1342C304.049 45.9388 307.276 42.7115 311.407 40.4524C315.603 38.1933 320.411 37.0638 325.833 37.0638C331.19 37.0638 335.935 38.1611 340.065 40.3556C344.196 42.5501 347.424 45.7129 349.747 49.8438C352.071 53.9102 353.233 58.7188 353.233 64.2697ZM333.869 59.5256C333.869 57.202 333.095 55.3947 331.545 54.1038C329.996 52.7483 328.06 52.0706 325.736 52.0706C323.413 52.0706 321.509 52.7161 320.024 54.007C318.54 55.2333 317.571 57.0729 317.12 59.5256H333.869ZM337.548 24.0901L313.344 33.5783V20.7015L337.548 9.76102V24.0901Z" stroke="#222222" stroke-width="8" mask="url(#path-2-outside-2_28_37)"/>
<path d="M398.507 77.5338H419.71V92.0566H379.53V23.7997H398.507V77.5338Z" stroke="#222222" stroke-width="8" mask="url(#path-2-outside-2_28_37)"/>
<path d="M436.286 92.8311C432.93 92.8311 430.219 91.9275 428.153 90.1202C426.153 88.2484 425.152 85.8925 425.152 83.0525C425.152 80.2125 426.153 77.8566 428.153 75.9847C430.219 74.1129 432.93 73.177 436.286 73.177C439.578 73.177 442.224 74.1129 444.225 75.9847C446.291 77.8566 447.323 80.2125 447.323 83.0525C447.323 85.8279 446.291 88.1516 444.225 90.0234C442.224 91.8952 439.578 92.8311 436.286 92.8311Z" stroke="#222222" stroke-width="8" mask="url(#path-2-outside-2_28_37)"/>
<path d="M41.1495 204.68C34.7595 204.68 28.8859 203.196 23.5286 200.227C18.1713 197.193 13.9113 193.03 10.7486 187.737C7.65041 182.38 6.10132 176.345 6.10132 169.632C6.10132 162.919 7.65041 156.917 10.7486 151.624C13.9113 146.267 18.1713 142.104 23.5286 139.134C28.8859 136.165 34.7595 134.681 41.1495 134.681C47.6041 134.681 53.4777 136.165 58.7705 139.134C64.1278 142.104 68.3555 146.267 71.4537 151.624C74.5519 156.917 76.101 162.919 76.101 169.632C76.101 176.345 74.5519 182.38 71.4537 187.737C68.3555 193.03 64.1278 197.193 58.7705 200.227C53.4132 203.196 47.5396 204.68 41.1495 204.68ZM41.1495 187.06C45.9905 187.06 49.7986 185.478 52.5741 182.315C55.4141 179.153 56.8341 174.925 56.8341 169.632C56.8341 164.21 55.4141 159.95 52.5741 156.852C49.7986 153.689 45.9905 152.108 41.1495 152.108C36.2441 152.108 32.4036 153.689 29.6282 156.852C26.8527 159.95 25.465 164.21 25.465 169.632C25.465 174.99 26.8527 179.25 29.6282 182.412C32.4036 185.51 36.2441 187.06 41.1495 187.06Z" stroke="#222222" stroke-width="8" mask="url(#path-2-outside-2_28_37)"/>
<path d="M93.8293 204.777C90.4729 204.777 87.762 203.874 85.6965 202.066C83.6956 200.195 82.6952 197.839 82.6952 194.999C82.6952 192.159 83.6956 189.803 85.6965 187.931C87.762 186.059 90.4729 185.123 93.8293 185.123C97.1211 185.123 99.7675 186.059 101.768 187.931C103.834 189.803 104.867 192.159 104.867 194.999C104.867 197.774 103.834 200.098 101.768 201.97C99.7675 203.841 97.1211 204.777 93.8293 204.777Z" stroke="#222222" stroke-width="8" mask="url(#path-2-outside-2_28_37)"/>
<path d="M177.498 135.746V180.96C177.498 188.641 175.401 194.515 171.205 198.581C167.074 202.647 161.362 204.68 154.068 204.68C146.323 204.68 140.127 202.518 135.479 198.194C130.897 193.869 128.605 187.64 128.605 179.508H147.388C147.453 184.865 149.421 187.544 153.294 187.544C156.779 187.544 158.522 185.349 158.522 180.96V135.746H177.498Z" stroke="#222222" stroke-width="8" mask="url(#path-2-outside-2_28_37)"/>
<path d="M244.398 149.688V204.003H225.325V196.257C223.712 198.71 221.485 200.711 218.645 202.26C215.805 203.745 212.545 204.487 208.866 204.487C202.541 204.487 197.538 202.421 193.859 198.29C190.245 194.095 188.437 188.415 188.437 181.25V149.688H207.317V178.83C207.317 181.928 208.124 184.381 209.737 186.188C211.416 187.931 213.61 188.802 216.321 188.802C219.097 188.802 221.291 187.931 222.905 186.188C224.518 184.381 225.325 181.928 225.325 178.83V149.688H244.398ZM228.423 136.52L204.219 146.009V133.132L228.423 122.191V136.52Z" stroke="#222222" stroke-width="8" mask="url(#path-2-outside-2_28_37)"/>
<path d="M290.73 149.204C296.991 149.204 301.961 151.301 305.641 155.497C309.32 159.628 311.159 165.243 311.159 172.343V204.003H292.183V174.86C292.183 171.762 291.376 169.342 289.762 167.599C288.149 165.792 285.986 164.888 283.275 164.888C280.435 164.888 278.209 165.792 276.595 167.599C274.981 169.342 274.175 171.762 274.175 174.86V204.003H255.198V149.688H274.175V157.433C275.853 154.98 278.112 153.012 280.952 151.527C283.792 149.978 287.051 149.204 290.73 149.204Z" stroke="#222222" stroke-width="8" mask="url(#path-2-outside-2_28_37)"/>
<path d="M331.157 144.653C327.8 144.653 325.089 143.749 323.024 141.942C321.023 140.07 320.023 137.747 320.023 134.971C320.023 132.131 321.023 129.775 323.024 127.904C325.089 126.032 327.8 125.096 331.157 125.096C334.448 125.096 337.095 126.032 339.096 127.904C341.161 129.775 342.194 132.131 342.194 134.971C342.194 137.747 341.161 140.07 339.096 141.942C337.095 143.749 334.448 144.653 331.157 144.653ZM340.548 149.688V204.003H321.572V149.688H340.548Z" stroke="#222222" stroke-width="8" mask="url(#path-2-outside-2_28_37)"/>
<path d="M376.624 204.68C371.202 204.68 366.329 203.551 362.005 201.292C357.745 199.033 354.388 195.805 351.936 191.61C349.483 187.415 348.256 182.477 348.256 176.797C348.256 171.181 349.483 166.276 351.936 162.08C354.453 157.885 357.841 154.658 362.101 152.399C366.426 150.139 371.299 149.01 376.721 149.01C382.143 149.01 386.984 150.139 391.244 152.399C395.568 154.658 398.957 157.885 401.41 162.08C403.927 166.276 405.186 171.181 405.186 176.797C405.186 182.412 403.927 187.35 401.41 191.61C398.957 195.805 395.568 199.033 391.244 201.292C386.919 203.551 382.046 204.68 376.624 204.68ZM376.624 188.221C379.271 188.221 381.465 187.253 383.208 185.317C385.015 183.316 385.919 180.476 385.919 176.797C385.919 173.118 385.015 170.31 383.208 168.374C381.465 166.437 379.303 165.469 376.721 165.469C374.139 165.469 371.977 166.437 370.234 168.374C368.491 170.31 367.62 173.118 367.62 176.797C367.62 180.54 368.459 183.38 370.137 185.317C371.816 187.253 373.978 188.221 376.624 188.221Z" stroke="#222222" stroke-width="8" mask="url(#path-2-outside-2_28_37)"/>
<path d="M431.882 159.273C434.012 156.174 436.594 153.722 439.628 151.914C442.662 150.107 445.921 149.204 449.407 149.204V169.439H444.082C439.951 169.439 436.885 170.245 434.884 171.859C432.883 173.473 431.882 176.28 431.882 180.282V204.003H412.906V149.688H431.882V159.273Z" stroke="#222222" stroke-width="8" mask="url(#path-2-outside-2_28_37)"/>
</svg>
