<svg width="380" height="312" viewBox="0 0 380 312" fill="none" xmlns="http://www.w3.org/2000/svg">
<path d="M280.746 54.0898C269.203 40.9599 260.268 25.2852 246.472 14.5699C224.802 -2.29651 193.614 -3.94101 168.275 6.65452C142.936 17.25 123.197 38.6076 110.187 62.791C103.344 75.515 97.9677 89.3943 87.9394 99.7921C79.462 108.577 68.32 114.181 57.7557 120.286C40.7227 130.101 24.3194 141.961 13.2972 158.234C2.27492 174.507 -2.65335 195.88 4.39299 214.22C9.14432 226.595 18.7146 236.441 28.5191 245.356C40.0566 255.837 52.458 265.652 66.7692 271.897C84.6869 279.666 104.577 281.337 124.082 282.128C158.661 283.524 193.295 282.48 227.726 279.005C255.922 276.164 284.971 271.314 308.562 255.613C341.608 233.626 358.646 193.341 362.481 153.837C364.042 138.037 363.647 121.618 357.548 106.958C342.961 71.893 303.602 80.0946 280.746 54.0898Z" fill="#0081C9"/>
<path d="M140.818 124.491C140.818 124.491 127.74 122.191 124.077 131.256C120.413 140.322 124.077 171.629 124.077 171.629L172.87 206.174L140.818 124.491Z" fill="#3F3D56"/>
<path d="M202.299 263.924L183.372 269.529C182.051 269.916 180.631 269.765 179.421 269.108C178.212 268.45 177.312 267.34 176.919 266.021C176.531 264.7 176.683 263.28 177.34 262.07C177.997 260.861 179.107 259.961 180.427 259.568L199.328 253.958C200.648 253.57 202.068 253.721 203.277 254.377C204.487 255.034 205.387 256.142 205.781 257.46C206.173 258.779 206.026 260.199 205.374 261.411C204.722 262.622 203.616 263.526 202.299 263.924Z" fill="#0081C9"/>
<path d="M201.232 284.631C206.05 284.631 209.955 280.726 209.955 275.909C209.955 271.092 206.05 267.187 201.232 267.187C196.415 267.187 192.51 271.092 192.51 275.909C192.51 280.726 196.415 284.631 201.232 284.631Z" fill="#25233A"/>
<path d="M199.661 281.066C202.069 281.066 204.022 279.114 204.022 276.705C204.022 274.297 202.069 272.344 199.661 272.344C197.252 272.344 195.3 274.297 195.3 276.705C195.3 279.114 197.252 281.066 199.661 281.066Z" fill="#3F3D56"/>
<path d="M166.266 276.013C171.083 276.013 174.988 272.108 174.988 267.291C174.988 262.474 171.083 258.569 166.266 258.569C161.449 258.569 157.544 262.474 157.544 267.291C157.544 272.108 161.449 276.013 166.266 276.013Z" fill="#25233A"/>
<path d="M169.061 268.077C169.061 268.939 168.805 269.782 168.326 270.5C167.847 271.217 167.165 271.776 166.369 272.106C165.572 272.436 164.695 272.522 163.849 272.354C163.003 272.186 162.226 271.77 161.616 271.16C161.006 270.551 160.591 269.773 160.422 268.928C160.254 268.082 160.341 267.205 160.671 266.408C161.001 265.611 161.56 264.93 162.277 264.451C162.994 263.971 163.837 263.716 164.7 263.716C165.856 263.716 166.966 264.175 167.783 264.993C168.601 265.811 169.061 266.92 169.061 268.077Z" fill="url(#paint0_linear_123_65)"/>
<path d="M163.742 287.941C168.559 287.941 172.464 284.036 172.464 279.219C172.464 274.402 168.559 270.497 163.742 270.497C158.925 270.497 155.02 274.402 155.02 279.219C155.02 284.036 158.925 287.941 163.742 287.941Z" fill="#25233A"/>
<path d="M170.632 279.51C170.632 280.373 170.377 281.216 169.897 281.933C169.418 282.65 168.737 283.209 167.94 283.539C167.143 283.869 166.267 283.956 165.421 283.787C164.575 283.619 163.798 283.204 163.188 282.594C162.578 281.984 162.162 281.207 161.994 280.361C161.826 279.515 161.912 278.638 162.242 277.841C162.572 277.044 163.131 276.363 163.849 275.884C164.566 275.405 165.409 275.149 166.271 275.149C167.428 275.149 168.537 275.609 169.355 276.427C170.173 277.244 170.632 278.354 170.632 279.51Z" fill="#3F3D56"/>
<path d="M202.986 272.479L163.097 264.429C161.749 264.153 160.564 263.354 159.804 262.207C159.043 261.06 158.768 259.658 159.038 258.309C159.314 256.961 160.112 255.778 161.258 255.018C162.404 254.257 163.804 253.981 165.153 254.25L205.042 262.285C206.39 262.561 207.574 263.36 208.335 264.507C209.096 265.654 209.371 267.055 209.101 268.405C208.829 269.755 208.032 270.942 206.886 271.706C205.74 272.469 204.337 272.748 202.986 272.479Z" fill="#0081C9"/>
<path d="M178.397 209.812H189.289V255.686C189.289 257.13 188.716 258.514 187.695 259.535C186.674 260.556 185.289 261.129 183.846 261.129C182.402 261.129 181.017 260.556 179.997 259.535C178.976 258.514 178.402 257.13 178.402 255.686V209.812H178.397Z" fill="#0081C9"/>
<path d="M182.305 269.466L163.383 275.082C162.062 275.471 160.64 275.32 159.429 274.663C158.218 274.005 157.318 272.894 156.925 271.574C156.537 270.253 156.689 268.833 157.346 267.623C158.003 266.414 159.113 265.514 160.432 265.121L179.355 259.521C180.675 259.133 182.095 259.284 183.304 259.94C184.513 260.597 185.413 261.705 185.808 263.024C186.192 264.342 186.04 265.76 185.384 266.967C184.728 268.174 183.621 269.072 182.305 269.466Z" fill="#0081C9"/>
<path d="M185.438 268.909L183.356 269.529C182.736 269.712 182.086 269.777 181.441 269.721L182.31 269.466C182.915 269.29 183.482 269.002 183.981 268.618L185.438 268.909Z" fill="url(#paint1_linear_123_65)"/>
<path d="M205.999 258.949C205.999 260.145 205.583 261.304 204.823 262.227L188.274 258.881C188.691 258.314 188.992 257.67 189.159 256.987L199.354 253.969C200.011 253.779 200.698 253.721 201.378 253.797C202.057 253.874 202.714 254.083 203.313 254.414C203.911 254.744 204.438 255.189 204.864 255.724C205.291 256.258 205.607 256.871 205.797 257.528C205.929 257.99 205.997 258.468 205.999 258.949Z" fill="url(#paint2_linear_123_65)"/>
<path d="M178.538 256.924C178.444 256.518 178.397 256.103 178.397 255.686L178.397 209.812H182.18V259.251C182.143 259.493 182.155 259.741 182.217 259.979C181.644 259.732 181.029 259.596 180.406 259.578C179.966 259.547 179.524 259.547 179.084 259.578L179.355 259.5C179.521 259.469 178.756 257.861 178.538 256.924Z" fill="url(#paint3_linear_123_65)"/>
<path d="M206.489 271.917C205.729 272.338 204.875 272.559 204.006 272.558C203.657 272.557 203.308 272.522 202.966 272.453L185.417 268.909L183.955 268.618C183.456 269.002 182.889 269.29 182.284 269.466L181.415 269.721L163.383 275.082C162.062 275.471 160.64 275.32 159.429 274.663C158.218 274.005 157.318 272.894 156.925 271.574C157.683 272.278 158.663 272.695 159.695 272.754C160.728 272.813 161.749 272.509 162.582 271.897C164.783 270.372 173.547 268.082 178.512 266.864C179.66 266.59 180.704 265.988 181.517 265.131C182.33 264.275 182.877 263.201 183.091 262.04C183.104 261.9 183.124 261.761 183.154 261.624C183.981 262.519 185.501 263.523 188.248 264.377C195.014 266.458 205.999 267.837 205.999 267.837C205.999 267.837 207.982 269.784 206.489 271.917Z" fill="url(#paint4_linear_123_65)"/>
<path d="M208.373 270.169C208.03 270.705 207.591 271.173 207.077 271.548C207.425 271.189 207.873 270.71 208.373 270.169Z" fill="url(#paint5_linear_123_65)"/>
<path d="M178.538 256.924C178.751 257.847 179.203 258.698 179.849 259.391C179.688 259.422 179.521 259.464 179.354 259.511L162.951 264.366C161.731 264.056 160.665 263.315 159.95 262.28C159.235 261.244 158.919 259.984 159.061 258.734C159.203 257.483 159.794 256.327 160.724 255.478C161.653 254.63 162.859 254.147 164.117 254.119C164.466 254.12 164.815 254.155 165.158 254.223L178.538 256.924Z" fill="url(#paint6_linear_123_65)"/>
<path d="M203.808 35.9536C203.808 35.9536 203.595 19.7793 190.632 21.174C177.668 22.5686 178.662 17.2136 173.125 17.8017C167.588 18.3898 161.156 23.8541 163.003 30.6038C164.851 37.3535 158.117 38.8626 153.693 43.9835C149.27 49.1043 154.734 53.2936 162.186 58.2999C169.638 63.3063 161.723 62.0104 166.141 69.9259C170.56 77.8413 185.516 67.7297 185.516 67.7297L203.808 35.9536Z" fill="#3F3D56"/>
<path d="M98.0667 306.571L107.262 306.884V233.449C107.262 233.449 107.725 214.459 125.648 212.554C143.571 210.65 306.116 187.122 306.116 187.122C306.116 187.122 312.558 186.44 316.269 198.795C319.979 211.149 323.591 259.729 323.591 259.729L373.483 266.448C373.483 266.448 374.799 180.632 356.783 175.897C338.766 171.161 103.151 195.292 103.151 195.292C103.151 195.292 85.6757 286.437 98.0667 306.571Z" fill="#0081C9"/>
<path d="M98.0667 306.571L107.262 306.884V233.449C107.262 233.449 107.725 214.459 125.648 212.554C143.571 210.65 306.116 187.122 306.116 187.122C306.116 187.122 312.558 186.44 316.269 198.795C319.979 211.149 323.591 259.729 323.591 259.729L373.483 266.448C373.483 266.448 374.799 180.632 356.783 175.897C338.766 171.161 103.151 195.292 103.151 195.292C103.151 195.292 85.6757 286.437 98.0667 306.571Z" fill="url(#paint7_linear_123_65)"/>
<path d="M49.5437 204.306C49.5437 204.306 54.0504 179.368 85.7486 172.832L309.504 147.196C309.504 147.196 331.47 146.286 341.519 152.369C351.568 158.453 365.911 163.495 371.791 191.025C377.672 218.555 379.077 265.584 379.077 265.584L373.514 266.448C373.514 266.448 365.396 181.288 356.793 175.897C348.191 170.505 115.604 203.583 115.604 203.583C115.604 203.583 99.4717 206.793 98.0666 230.701C96.6615 254.609 98.0666 306.566 98.0666 306.566L49.5437 286.978V204.306Z" fill="#0081C9"/>
<path d="M279.747 156.793C268.168 155.283 256.495 154.19 244.827 154.633C236.058 154.976 227.347 156.194 218.651 157.407L141.958 168.132C140.657 168.314 139.174 168.611 138.523 169.756C137.274 171.942 140.209 174.096 142.588 174.929C168.088 183.869 195.331 192.925 221.58 186.549C233.581 183.635 244.728 177.583 256.901 175.48C269.073 173.378 281.568 175.314 293.714 173.331C305.132 171.468 316.003 166.176 327.577 166.123C331.127 166.123 334.78 166.581 338.147 165.457C341.514 164.333 344.491 160.899 343.559 157.474C332.693 157.094 320.495 155.086 309.837 157.266C299.288 159.421 290.311 156.793 279.747 156.793Z" fill="url(#paint8_linear_123_65)"/>
<path d="M210.392 169.865L210.839 171.577C210.839 171.577 224.089 179.815 224.006 180.081C223.922 180.346 278.966 166.93 278.966 166.93L280.246 163.079L210.392 169.865Z" fill="#0081C9"/>
<path d="M210.392 169.865L210.839 171.577C210.839 171.577 224.089 179.815 224.006 180.081C223.922 180.346 278.966 166.93 278.966 166.93L280.246 163.079L210.392 169.865Z" fill="url(#paint9_linear_123_65)"/>
<path d="M211.63 169.865L260.049 158.952L280.236 163.079L225.229 176.917L211.63 169.865Z" fill="#0081C9"/>
<path d="M211.63 169.865L260.049 158.952L280.236 163.079L225.229 176.917L211.63 169.865Z" fill="url(#paint10_linear_123_65)"/>
<path d="M196.387 178.499L207.883 178.884C207.883 178.884 210.803 179.056 211.557 176.839C212.312 174.622 206.874 169.943 206.291 169.855C205.708 169.766 190.58 173.784 192.76 177.801L196.387 178.499Z" fill="#0081C9"/>
<path d="M196.387 178.499L207.883 178.884C207.883 178.884 210.803 179.056 211.557 176.839C212.312 174.622 206.874 169.943 206.291 169.855C205.708 169.766 190.58 173.784 192.76 177.801L196.387 178.499Z" fill="url(#paint11_linear_123_65)"/>
<path d="M63.5114 291.735L57.917 308.721C41.6907 314.482 27.8946 308.721 27.8946 308.721L23.8823 290.907C23.8823 290.907 44.121 297.615 63.5114 291.735Z" fill="#0081C9"/>
<path d="M63.5114 291.735L57.917 308.721C41.6907 314.482 27.8946 308.721 27.8946 308.721L23.8823 290.907C23.8823 290.907 44.121 297.615 63.5114 291.735Z" fill="url(#paint12_linear_123_65)"/>
<path d="M69.8553 275.919L68.0599 289.346L63.5115 291.729C44.1367 297.61 23.8823 290.907 23.8823 290.907L20.3904 288.305L18.7615 275.919H69.8553Z" fill="#0081C9"/>
<path d="M69.8553 275.919L68.0599 289.346L63.5115 291.729C44.1367 297.61 23.8823 290.907 23.8823 290.907L20.3904 288.305L18.7615 275.919H69.8553Z" fill="url(#paint13_linear_123_65)"/>
<path d="M44.3032 280.515C58.4095 280.515 69.8449 278.457 69.8449 275.919C69.8449 273.382 58.4095 271.324 44.3032 271.324C30.1969 271.324 18.7615 273.381 18.7615 275.919C18.7615 278.457 30.1969 280.515 44.3032 280.515Z" fill="#0081C9"/>
<path d="M44.3032 280.515C58.4095 280.515 69.8449 278.457 69.8449 275.919C69.8449 273.382 58.4095 271.324 44.3032 271.324C30.1969 271.324 18.7615 273.381 18.7615 275.919C18.7615 278.457 30.1969 280.515 44.3032 280.515Z" fill="url(#paint14_linear_123_65)"/>
<path d="M32.1516 173.388C29.6433 172.202 26.9475 171.307 24.7774 169.574C20.406 166.051 19.2975 159.983 17.9289 154.539C16.5602 149.096 13.9113 143.111 8.51465 141.55C6.49546 140.972 4.1276 141.201 2.5924 142.637C0.973925 144.152 0.646067 146.639 1.08841 148.835C1.53076 151.032 2.60801 152.999 3.44066 155.08C5.38506 159.915 5.97692 165.188 5.15281 170.333C4.47107 174.554 2.84219 178.832 3.88822 182.969C5.66281 189.989 14.5046 194.106 14.7492 201.339C14.9157 206.221 10.8981 210.738 11.8088 215.541C12.4802 219.096 15.7535 221.87 15.9305 225.481C16.1282 229.577 12.2564 233.043 12.4437 237.138C12.6311 241.234 16.7215 243.971 19.3912 247.193C21.6293 249.898 22.9601 253.239 23.1954 256.742C23.3359 258.928 23.0549 261.192 23.7678 263.263C24.2882 264.777 25.3291 266.063 26.1357 267.426C27.0256 268.899 27.6969 270.491 28.769 271.855C30.1167 273.554 31.9432 274.809 34.0121 275.458C36.0811 276.108 38.2973 276.122 40.3741 275.498C41.2015 270.054 40.4782 264.501 40.7071 259.001C41.1599 248.343 45.1931 237.602 42.6118 227.256C41.6647 223.462 39.8433 219.861 39.5206 215.968C39.2344 212.492 40.1607 209.047 40.806 205.617C42.1383 198.534 42.1175 191.212 41.571 184.051C41.1391 178.369 37.1423 175.751 32.1516 173.388Z" fill="#0081C9"/>
<path d="M48.1022 201.303C48.0606 206.054 49.143 210.967 47.6234 215.479C46.4733 218.898 43.9441 221.698 42.6379 225.06C39.6247 232.819 43.6787 241.52 42.8513 249.805C42.5078 253.219 41.3369 256.498 40.5979 259.849C39.6801 264.092 39.4551 268.456 39.9318 272.771C39.883 273.556 40.1193 274.333 40.5973 274.958C41.0754 275.584 41.763 276.015 42.5338 276.174C45.0836 277.147 47.7251 277.86 50.418 278.303C49.5076 273.279 50.4665 268.097 53.1137 263.731C57.2406 256.966 65.2601 252.407 66.7537 244.638C67.7632 239.376 65.411 234.037 65.5775 228.682C65.6974 225.119 66.9233 221.681 69.0851 218.846C71.0262 216.317 73.6543 214.36 75.4601 211.737C79.8003 205.414 78.4472 196.963 77.1566 189.401C75.866 181.84 75.1166 173.139 80.2166 167.409C81.8299 165.598 83.9324 164.24 85.3947 162.304C88.6525 157.989 87.8302 151.344 84.0416 147.488C80.2531 143.631 74.1539 142.565 69.0018 144.261C66.8286 144.901 64.9105 146.206 63.5167 147.992C60.9147 151.687 61.9555 156.735 63.0588 161.128C64.0215 164.942 64.7969 169.345 63.4803 173.191C62.4967 176.053 60.0039 177.604 57.8859 179.597C54.8837 182.375 52.4705 185.728 50.7898 189.456C49.1091 193.185 48.1951 197.214 48.1022 201.303Z" fill="#0081C9"/>
<path d="M42.7263 243.404C41.9874 248.567 40.9205 253.771 40.702 258.949V259.469C40.6903 259.598 40.6605 259.724 40.6135 259.844C39.6904 264.086 39.4602 268.45 39.9317 272.766C39.9597 273.465 40.1372 274.15 40.4522 274.774C40.4261 274.993 40.3949 275.206 40.3637 275.425C38.2869 276.049 36.0707 276.035 34.0017 275.386C31.9328 274.736 30.1063 273.481 28.7586 271.782C27.7177 270.419 27.0152 268.826 26.1253 267.353C25.2926 265.985 24.2778 264.699 23.7574 263.19C23.0445 261.108 23.3255 258.855 23.185 256.669C22.9497 253.166 21.6189 249.825 19.3808 247.12C16.7111 243.919 12.6155 241.234 12.4333 237.071C12.2512 232.908 16.1178 229.509 15.9201 225.414C15.7431 221.802 12.4698 219.028 11.7984 215.474C10.8877 210.67 14.9209 206.153 14.7388 201.272C14.4942 194.038 5.65241 189.922 3.87782 182.901C2.837 178.764 4.46067 174.486 5.14241 170.266C5.97022 165.127 5.3856 159.86 3.45108 155.028C2.61843 152.947 1.54118 150.985 1.09883 148.783C0.656486 146.582 0.984343 144.1 2.60282 142.58C4.16404 141.144 6.50588 140.915 8.52507 141.492C13.9269 143.054 16.5654 149.059 17.9393 154.503C19.3131 159.946 20.4164 166.009 24.7878 169.537C26.9475 171.281 29.6537 172.165 32.162 173.352C37.158 175.715 41.1547 178.332 41.5814 183.963C42.1018 191.124 42.1487 198.446 40.8164 205.529C40.1711 208.958 39.2552 212.403 39.531 215.88C39.8069 219.356 41.3212 222.645 42.31 226.017C42.4193 226.397 42.5286 226.782 42.6223 227.167C43.9337 232.522 43.5122 237.94 42.7263 243.404Z" fill="url(#paint15_linear_123_65)"/>
<path d="M40.4781 274.774C40.1548 274.153 39.9686 273.47 39.9318 272.771C39.4637 268.454 39.6973 264.091 40.6238 259.849C40.6499 259.724 40.6811 259.599 40.7123 259.474C40.525 264.585 41.1182 269.737 40.4781 274.774Z" fill="url(#paint16_linear_123_65)"/>
<path d="M85.3218 162.278C83.8594 164.214 81.757 165.572 80.1437 167.383C75.0437 173.107 75.7931 181.814 77.0837 189.375C78.3743 196.937 79.7274 205.388 75.3872 211.711C73.5813 214.313 70.9533 216.291 69.0122 218.82C66.8504 221.655 65.6245 225.093 65.5046 228.656C65.3381 234.011 67.6903 239.35 66.6807 244.612C65.1871 252.381 57.1676 256.95 53.0408 263.705C50.4035 268.074 49.4523 273.256 50.3659 278.277C47.6797 277.834 45.0452 277.121 42.5025 276.148C41.8071 275.942 41.1763 275.56 40.6707 275.04C40.599 274.955 40.5345 274.865 40.4781 274.769C40.1556 274.15 39.9693 273.468 39.9318 272.771C39.4637 268.454 39.6973 264.091 40.6238 259.849C40.6499 259.724 40.6811 259.599 40.7123 259.474C41.4513 256.253 42.5442 253.094 42.8772 249.805C43.0543 247.673 43.0124 245.528 42.7523 243.404C43.5381 237.94 43.9597 232.522 42.6326 227.204C42.5389 226.819 42.4297 226.434 42.3204 226.054C42.4193 225.721 42.5337 225.388 42.6638 225.06C43.9701 221.698 46.4993 218.898 47.6494 215.479C49.1638 210.967 48.0865 206.054 48.1281 201.303C48.1958 193.096 51.8959 185.17 57.839 179.571C59.957 177.578 62.4498 176.027 63.4334 173.165C64.75 169.319 63.9538 164.916 63.0118 161.102C61.9034 156.709 60.8521 151.661 63.4698 147.966C64.7708 146.135 66.8212 144.943 68.9549 144.235C74.0861 142.538 80.2113 143.605 83.9947 147.462C87.7781 151.318 88.5795 157.989 85.3218 162.278Z" fill="url(#paint17_linear_123_65)"/>
<path d="M177.564 80.6618C177.564 80.6618 155.671 84.0081 145.543 107.879C135.416 131.75 140.683 161.325 140.86 163.927C141.037 166.529 171.892 177.817 180.713 177.817C189.534 177.817 191.371 169.079 191.371 169.079L175.784 162.517L223.142 157.11H231.645L226.961 164.916C226.961 164.916 236.204 165.874 242.381 166.092C248.558 166.311 252.753 154.232 253.445 148.227C254.137 142.221 226.16 89.5088 221.981 86.3864C217.802 83.2639 206.463 75.6347 177.564 80.6618Z" fill="#0081C9"/>
<path d="M203.808 35.9536C203.808 35.9536 207.686 38.1653 207.337 45.3209C206.988 52.4766 204.802 63.2438 202.596 66.0332C200.389 68.8226 192.672 69.9155 192.672 69.9155C192.672 69.9155 196.882 80.0583 200.015 82.6759C203.148 85.2936 196.866 94.9368 190.757 91.7727C184.647 88.6086 177.564 80.6618 177.564 80.6618C177.564 80.6618 182.659 71.0916 180.937 66.054C179.214 61.0165 172.636 43.3382 177.564 38.5088C182.493 33.6794 193.119 26.7579 203.808 35.9536Z" fill="url(#paint18_linear_123_65)"/>
<path d="M168.702 115.024L165.267 157.11L175.759 162.517L184.288 161.055L173.646 148.206L168.702 115.024Z" fill="white"/>
<path d="M224.006 112.927C224.006 112.927 237.718 145.562 231.64 157.136L226.956 156.236L224.006 112.927Z" fill="white"/>
<path d="M185.672 167.57C185.672 167.57 180.437 172.254 182.774 175.897C185.11 179.54 187.9 179.436 190.226 177.807C192.552 176.178 197.121 172.311 202.565 174.086C208.008 175.86 209.33 176.99 209.33 176.99C209.33 176.99 212.197 175.111 211.453 173.227C210.709 171.343 205.016 165.239 203.366 164.448C201.716 163.657 194.868 166.087 194.868 166.087C194.868 166.087 189.836 164.661 185.672 167.57Z" fill="url(#paint19_linear_123_65)"/>
<path d="M233.196 158.78C233.196 158.78 228.211 159.353 226.951 162.517C225.692 165.681 225.239 166.066 225.239 166.066C225.239 166.066 228.054 166.587 229.225 165.114C230.396 163.641 231.614 164.26 231.614 164.26L231.265 166.149C231.265 166.149 238.915 167.263 242.371 166.066C245.826 164.869 247.31 163.464 247.31 163.464L248.663 160.269C248.663 160.269 245.4 157.984 242.938 157.63C240.477 157.276 233.196 158.78 233.196 158.78Z" fill="url(#paint20_linear_123_65)"/>
<path d="M258.504 193.965C258.504 193.965 275.484 206.892 273.975 224.378C272.466 241.864 270.249 267.827 270.249 267.827C270.249 267.827 263.401 270.71 258.863 267.827C254.325 264.944 251.577 225.492 249.329 221.724C247.081 217.956 233.555 200.97 219.103 199.508L258.504 193.965Z" fill="#25233A"/>
<path d="M172.87 206.153C172.87 206.153 181.056 213.96 195.648 216.411C210.241 218.862 217.042 220.907 221.502 233.454C225.962 246.001 230.24 273.005 231.64 276.023C233.04 279.042 238.993 277.501 238.993 277.501C238.993 277.501 242.36 273.64 242.36 252.168C242.36 222.234 244.442 216.098 236.943 208.578C229.444 201.059 222.621 199.008 222.621 199.008L172.87 206.153Z" fill="#3F3D56"/>
<path d="M231.64 276.023L233.029 286.978H235.632C235.632 286.978 252.389 287.894 252.914 287.498C253.44 287.103 252.108 278.823 245.759 279.057C239.41 279.291 238.993 277.496 238.993 277.496L231.64 276.023Z" fill="#25233A"/>
<path d="M260.908 268.727L263.614 279.51L293.184 275.451C293.184 275.451 294.224 268.368 284.857 269.071C282.385 269.253 280.543 270.991 277.571 271.007C274.6 271.022 271.753 269.804 270.254 267.827L260.908 268.727Z" fill="#25233A"/>
<path d="M364.016 133.078L252.092 139.073C250.792 139.141 249.518 138.69 248.55 137.82C247.582 136.949 247 135.73 246.93 134.431C246.93 134.347 246.93 134.259 246.93 134.176V54.8601C246.931 53.3158 247.536 51.8334 248.617 50.7303C249.698 49.6272 251.167 48.9913 252.711 48.9586L364.178 46.6584C364.886 46.6439 365.59 46.7691 366.249 47.0267C366.909 47.2843 367.512 47.6694 368.022 48.1599C368.533 48.6504 368.942 49.2368 369.227 49.8855C369.511 50.5342 369.664 51.2325 369.678 51.9406V127.108C369.677 128.639 369.089 130.11 368.036 131.22C366.983 132.33 365.544 132.995 364.016 133.078Z" fill="#0081C9"/>
<path d="M369.179 133.077L257.254 139.073C255.955 139.139 254.681 138.687 253.714 137.816C252.747 136.945 252.166 135.725 252.097 134.425C252.097 134.342 252.097 134.259 252.097 134.176V54.86C252.096 53.3158 252.7 51.8326 253.78 50.7291C254.86 49.6256 256.33 48.9899 257.874 48.9585L369.351 46.6583C370.778 46.6318 372.157 47.1725 373.187 48.1617C374.216 49.151 374.811 50.508 374.841 51.9353V127.108C374.839 128.639 374.251 130.11 373.198 131.22C372.145 132.33 370.707 132.995 369.179 133.077Z" fill="#0081C9"/>
<path d="M369.179 133.077L257.254 139.073C255.955 139.139 254.681 138.687 253.714 137.816C252.747 136.945 252.166 135.725 252.097 134.425C252.097 134.342 252.097 134.259 252.097 134.176V54.86C252.096 53.3158 252.7 51.8326 253.78 50.7291C254.86 49.6256 256.33 48.9899 257.874 48.9585L369.351 46.6583C370.778 46.6318 372.157 47.1725 373.187 48.1617C374.216 49.151 374.811 50.508 374.841 51.9353V127.108C374.839 128.639 374.251 130.11 373.198 131.22C372.145 132.33 370.707 132.995 369.179 133.077Z" fill="url(#paint21_linear_123_65)"/>
<path d="M336.591 163.037L308.171 166.066C308.171 166.066 299.517 164.318 299.985 163.037C300.454 161.757 309.504 160.524 309.504 160.524V108.92C309.426 108.806 308.234 107.286 304.971 106.318C304.339 106.13 303.696 105.981 303.045 105.871C302.486 105.789 301.942 105.624 301.432 105.381C299.491 104.377 301.635 102.628 304.648 102.55C305.12 102.534 305.592 102.562 306.059 102.634H327.916C327.916 102.634 336.19 104.965 336.591 116.601C336.992 128.238 336.591 163.037 336.591 163.037Z" fill="#0081C9"/>
<path d="M313.464 163.147L308.156 166.066C308.156 166.066 299.501 164.318 299.97 163.037C300.438 161.757 309.504 160.524 309.504 160.524V108.92C309.394 108.8 308.067 107.432 304.971 106.318C303.818 105.912 302.635 105.599 301.432 105.381C299.491 104.377 301.635 102.628 304.648 102.55C307.214 102.899 312.267 105.709 312.595 107.312C312.923 108.915 313.464 163.147 313.464 163.147Z" fill="#0081C9"/>
<path d="M313.464 163.147L308.156 166.066C308.156 166.066 299.501 164.318 299.97 163.037C300.438 161.757 309.504 160.524 309.504 160.524V108.92C309.394 108.8 308.067 107.432 304.971 106.318C303.818 105.912 302.635 105.599 301.432 105.381C299.491 104.377 301.635 102.628 304.648 102.55C307.214 102.899 312.267 105.709 312.595 107.312C312.923 108.915 313.464 163.147 313.464 163.147Z" fill="url(#paint22_linear_123_65)"/>
<path d="M207.077 271.548C206.416 272.224 206.109 272.474 206.499 271.917C206.701 271.81 206.895 271.687 207.077 271.548Z" fill="url(#paint23_linear_123_65)"/>
<defs>
<linearGradient id="paint0_linear_123_65" x1="0.908776" y1="155.64" x2="379.077" y2="155.64" gradientUnits="userSpaceOnUse">
<stop stop-color="#183866"/>
<stop offset="1" stop-color="#1A7FC1"/>
</linearGradient>
<linearGradient id="paint1_linear_123_65" x1="0.416285" y1="155.819" x2="379.077" y2="155.819" gradientUnits="userSpaceOnUse">
<stop/>
<stop offset="0.99" stop-opacity="0"/>
</linearGradient>
<linearGradient id="paint2_linear_123_65" x1="45.5428" y1="323.723" x2="616.495" y2="175.838" gradientUnits="userSpaceOnUse">
<stop/>
<stop offset="0.99" stop-opacity="0"/>
</linearGradient>
<linearGradient id="paint3_linear_123_65" x1="1148.81" y1="135.491" x2="1041.25" y2="711.043" gradientUnits="userSpaceOnUse">
<stop/>
<stop offset="0.99" stop-opacity="0"/>
</linearGradient>
<linearGradient id="paint4_linear_123_65" x1="371.536" y1="32.4702" x2="-243.49" y2="100.827" gradientUnits="userSpaceOnUse">
<stop/>
<stop offset="0.99" stop-opacity="0"/>
</linearGradient>
<linearGradient id="paint5_linear_123_65" x1="432.233" y1="92.797" x2="-270.16" y2="397.966" gradientUnits="userSpaceOnUse">
<stop/>
<stop offset="0.99" stop-opacity="0"/>
</linearGradient>
<linearGradient id="paint6_linear_123_65" x1="384.937" y1="276.027" x2="-43.3586" y2="206.436" gradientUnits="userSpaceOnUse">
<stop/>
<stop offset="0.99" stop-opacity="0"/>
</linearGradient>
<linearGradient id="paint7_linear_123_65" x1="365.639" y1="139.739" x2="-180.197" y2="154.737" gradientUnits="userSpaceOnUse">
<stop/>
<stop offset="0.99" stop-opacity="0"/>
</linearGradient>
<linearGradient id="paint8_linear_123_65" x1="0.910855" y1="155.662" x2="379.075" y2="155.662" gradientUnits="userSpaceOnUse">
<stop stop-color="#183866"/>
<stop offset="1" stop-color="#1A7FC1"/>
</linearGradient>
<linearGradient id="paint9_linear_123_65" x1="-3.99345" y1="171.942" x2="829.055" y2="-815.757" gradientUnits="userSpaceOnUse">
<stop/>
<stop offset="0.99" stop-opacity="0"/>
</linearGradient>
<linearGradient id="paint10_linear_123_65" x1="-206.979" y1="-4.59888" x2="234.808" y2="-51.7001" gradientUnits="userSpaceOnUse">
<stop/>
<stop offset="0.99" stop-opacity="0"/>
</linearGradient>
<linearGradient id="paint11_linear_123_65" x1="-372.999" y1="-1013.12" x2="-482.992" y2="-1473.02" gradientUnits="userSpaceOnUse">
<stop/>
<stop offset="0.99" stop-opacity="0"/>
</linearGradient>
<linearGradient id="paint12_linear_123_65" x1="445.076" y1="134.372" x2="109.07" y2="142.381" gradientUnits="userSpaceOnUse">
<stop/>
<stop offset="0.99" stop-opacity="0"/>
</linearGradient>
<linearGradient id="paint13_linear_123_65" x1="422.91" y1="130.563" x2="206.964" y2="133.788" gradientUnits="userSpaceOnUse">
<stop/>
<stop offset="0.99" stop-opacity="0"/>
</linearGradient>
<linearGradient id="paint14_linear_123_65" x1="216.421" y1="-427.262" x2="-1036.56" y2="892.072" gradientUnits="userSpaceOnUse">
<stop/>
<stop offset="0.99" stop-opacity="0"/>
</linearGradient>
<linearGradient id="paint15_linear_123_65" x1="359.188" y1="309.91" x2="340.555" y2="-16.9295" gradientUnits="userSpaceOnUse">
<stop/>
<stop offset="0.99" stop-opacity="0"/>
</linearGradient>
<linearGradient id="paint16_linear_123_65" x1="1110.94" y1="377.137" x2="1106.61" y2="39.9761" gradientUnits="userSpaceOnUse">
<stop/>
<stop offset="0.99" stop-opacity="0"/>
</linearGradient>
<linearGradient id="paint17_linear_123_65" x1="-6.81041" y1="326.997" x2="17.2935" y2="43.4185" gradientUnits="userSpaceOnUse">
<stop/>
<stop offset="0.99" stop-opacity="0"/>
</linearGradient>
<linearGradient id="paint18_linear_123_65" x1="0.757951" y1="155.619" x2="379.061" y2="155.619" gradientUnits="userSpaceOnUse">
<stop stop-color="#ECC4D7"/>
<stop offset="0.42" stop-color="#EFD4D1"/>
<stop offset="1" stop-color="#F2EAC9"/>
</linearGradient>
<linearGradient id="paint19_linear_123_65" x1="0.935775" y1="155.398" x2="379.097" y2="155.398" gradientUnits="userSpaceOnUse">
<stop stop-color="#ECC4D7"/>
<stop offset="0.42" stop-color="#EFD4D1"/>
<stop offset="1" stop-color="#F2EAC9"/>
</linearGradient>
<linearGradient id="paint20_linear_123_65" x1="0.908691" y1="155.714" x2="379.077" y2="155.714" gradientUnits="userSpaceOnUse">
<stop stop-color="#ECC4D7"/>
<stop offset="0.42" stop-color="#EFD4D1"/>
<stop offset="1" stop-color="#F2EAC9"/>
</linearGradient>
<linearGradient id="paint21_linear_123_65" x1="398.622" y1="307.018" x2="-22.7753" y2="51.8233" gradientUnits="userSpaceOnUse">
<stop/>
<stop offset="0.99" stop-opacity="0"/>
</linearGradient>
<linearGradient id="paint22_linear_123_65" x1="1650.84" y1="400.138" x2="1489.81" y2="-457.349" gradientUnits="userSpaceOnUse">
<stop/>
<stop offset="0.99" stop-opacity="0"/>
</linearGradient>
<linearGradient id="paint23_linear_123_65" x1="207.139" y1="271.74" x2="206.265" y2="272.032" gradientUnits="userSpaceOnUse">
<stop/>
<stop offset="0.99" stop-opacity="0"/>
</linearGradient>
</defs>
</svg>
